<?xml version="1.0" encoding="UTF-8"?>
<svg version="1.1" xmlns="http://www.w3.org/2000/svg" width="1024" height="1024">
<path d="M0 0 C1.84666889 2.33986415 1.78337135 3.91836002 1.86447144 6.88171387 C1.89936676 7.93797974 1.93426208 8.99424561 1.97021484 10.08251953 C1.9921994 11.23119507 2.01418396 12.37987061 2.03683472 13.56335449 C2.06985687 14.76262573 2.10287903 15.96189697 2.13690186 17.19750977 C2.44785671 29.62724826 2.50878543 42.05995405 2.48751831 54.49304199 C2.48210962 58.24568645 2.48753363 61.99821338 2.49386597 65.75085449 C2.4976047 76.34176332 2.46674588 86.92449931 1.95089722 97.50476074 C1.90063889 98.60026245 1.90063889 98.60026245 1.84936523 99.71789551 C0.70529289 119.61215633 -9.46525388 135.27098454 -23.70535278 148.65710449 C-34.27826314 157.97133504 -45.84003744 166.05475843 -57.64285278 173.71960449 C-59.03993532 174.65524188 -60.43582613 175.59266192 -61.83035278 176.53210449 C-66.35116844 179.54320126 -70.90145659 182.50887741 -75.45535278 185.46960449 C-76.19744995 185.95405029 -76.93954712 186.43849609 -77.70413208 186.93762207 C-78.41223022 187.39677002 -79.12032837 187.85591797 -79.84988403 188.32897949 C-80.80084961 188.94724609 -80.80084961 188.94724609 -81.77102661 189.57800293 C-86.01498355 192.16633508 -88.76292687 193.22911796 -93.89675903 192.51257324 C-103.57495953 189.71787239 -112.65295289 182.57729085 -120.84793091 176.94763184 C-122.94435626 175.51332559 -125.05137813 174.09521217 -127.15847778 172.67663574 C-152.34203401 155.66631346 -152.34203401 155.66631346 -161.64285278 145.71960449 C-162.46785278 144.93585449 -163.29285278 144.15210449 -164.14285278 143.34460449 C-177.83387837 128.96902763 -183.49406996 113.1756446 -184.19754028 93.65710449 C-184.23860901 92.54127991 -184.27967773 91.42545532 -184.32199097 90.27581787 C-184.81743975 75.3451706 -184.86621753 60.40913846 -184.88308716 45.47155762 C-184.88867119 41.25106418 -184.91299264 37.03087741 -184.94105911 32.81048203 C-184.95966332 29.51962351 -184.96488887 26.22884154 -184.96642303 22.93793488 C-184.9694314 21.3798674 -184.97739787 19.82180069 -184.99060822 18.26378632 C-185.00769882 16.10265006 -185.00578716 13.94230464 -184.9992981 11.78112793 C-185.00294373 10.55827087 -185.00658936 9.33541382 -185.01034546 8.07550049 C-184.59834362 4.31315256 -183.62974533 1.92595078 -181.64285278 -1.28039551 C-137.75091913 -30.06972833 -42.24901277 -32.92775026 0 0 Z " fill="#4E947F" transform="translate(266.6428527832031,417.2803955078125)"/>
<path d="M0 0 C1.02802734 -0.01224609 2.05605469 -0.02449219 3.11523438 -0.03710938 C4.09685547 -0.03904297 5.07847656 -0.04097656 6.08984375 -0.04296875 C6.99468506 -0.04707764 7.89952637 -0.05118652 8.83178711 -0.05541992 C11.0625 0.1875 11.0625 0.1875 13.0625 2.1875 C12.4025 2.1875 11.7425 2.1875 11.0625 2.1875 C11.07502808 2.73886627 11.08755615 3.29023254 11.10046387 3.85830688 C11.74045597 32.32090334 12.17122175 60.77521874 12.18588257 89.24474335 C12.18749951 91.31186902 12.19105767 93.37898365 12.19506836 95.44610596 C12.20199757 99.32085369 12.19949738 103.19555986 12.1953125 107.0703125 C12.19729645 108.22623901 12.1992804 109.38216553 12.20132446 110.57312012 C12.19821259 111.63840942 12.19510071 112.70369873 12.19189453 113.80126953 C12.19109894 114.72569855 12.19030334 115.65012756 12.18948364 116.60256958 C12.06086457 119.22079146 11.64299928 121.63454923 11.0625 124.1875 C11.7225 124.5175 12.3825 124.8475 13.0625 125.1875 C10.03115616 126.19794795 8.31854057 126.23782949 5.17578125 126.06640625 C4.23798828 126.01806641 3.30019531 125.96972656 2.33398438 125.91992188 C1.35751953 125.86384766 0.38105469 125.80777344 -0.625 125.75 C-1.61306641 125.69779297 -2.60113281 125.64558594 -3.61914062 125.59179688 C-6.05891676 125.46214694 -8.49828105 125.32718258 -10.9375 125.1875 C-11.2675 123.2075 -11.5975 121.2275 -11.9375 119.1875 C-12.5975 120.1775 -13.2575 121.1675 -13.9375 122.1875 C-15.796875 123.2421875 -15.796875 123.2421875 -17.9375 124.1875 C-18.60265625 124.54070312 -19.2678125 124.89390625 -19.953125 125.2578125 C-29.80302168 129.90723925 -42.0361133 129.63081253 -52.33984375 126.3671875 C-62.2063104 121.88647633 -70.19174574 114.64556266 -74.75 104.875 C-75.06130859 104.22982422 -75.37261719 103.58464844 -75.69335938 102.91992188 C-76.45073712 101.34690656 -77.19546058 99.76780874 -77.9375 98.1875 C-78.5975 98.1875 -79.2575 98.1875 -79.9375 98.1875 C-80.5975 96.8675 -81.2575 95.5475 -81.9375 94.1875 C-80.9475 93.6925 -80.9475 93.6925 -79.9375 93.1875 C-79.97230469 91.95515625 -80.00710938 90.7228125 -80.04296875 89.453125 C-80.39529357 71.77965353 -77.76834729 58.73632885 -65.40625 45.48828125 C-56.97106781 37.62701177 -48.00974902 34.94300647 -36.75 34.4375 C-35.84830078 34.38207031 -34.94660156 34.32664062 -34.01757812 34.26953125 C-33.15197266 34.22699219 -32.28636719 34.18445313 -31.39453125 34.140625 C-30.61053955 34.10098633 -29.82654785 34.06134766 -29.01879883 34.02050781 C-26.9375 34.1875 -26.9375 34.1875 -23.9375 36.1875 C-21.96225937 37.15281267 -19.97101624 38.07579121 -17.97265625 38.9921875 C-15.56083794 40.4087257 -13.88103837 42.18948884 -11.9375 44.1875 C-11.94273682 42.89013916 -11.94797363 41.59277832 -11.95336914 40.25610352 C-11.97141469 35.46102585 -11.98293037 30.6659512 -11.99243164 25.87084961 C-11.99747288 23.79206844 -12.00430574 21.71329084 -12.01293945 19.63452148 C-12.02501422 16.65347414 -12.03073024 13.67247351 -12.03515625 10.69140625 C-12.04289818 9.28828941 -12.04289818 9.28828941 -12.05079651 7.85682678 C-12.05087204 6.99600998 -12.05094757 6.13519318 -12.05102539 5.24829102 C-12.053246 4.48662125 -12.05546661 3.72495148 -12.05775452 2.94020081 C-11.72300774 -1.93870903 -3.62055766 0.00226144 0 0 Z M-53.75 65.4921875 C-56.49967853 69.41771541 -57.06848692 72.47197078 -56.9375 77.1875 C-57.2675 77.5175 -57.5975 77.8475 -57.9375 78.1875 C-58.66077782 86.68601435 -56.2318413 94.8166927 -50.7890625 101.42578125 C-45.85554976 106.11990414 -40.2144169 108.4482527 -33.4375 108.8125 C-26.39752668 108.46299778 -20.58637279 105.70053316 -15.5 100.875 C-10.44223744 92.17564839 -8.90021364 83.44399476 -11.21875 73.60546875 C-13.35141431 66.43090785 -16.58818209 61.33237697 -22.9375 57.1875 C-35.02139132 51.28747924 -45.90548797 55.64391424 -53.75 65.4921875 Z " fill="#2D333A" transform="translate(930.9375,429.8125)"/>
<path d="M0 0 C0.91644287 0.00523682 1.83288574 0.01047363 2.77709961 0.01586914 C3.76645508 0.0190918 4.75581055 0.02231445 5.77514648 0.02563477 C6.81606445 0.03401367 7.85698242 0.04239258 8.92944336 0.05102539 C10.49662109 0.05779297 10.49662109 0.05779297 12.09545898 0.06469727 C14.68600996 0.07652627 17.27644895 0.0930085 19.86694336 0.11352539 C20.6068983 3.42678938 20.99497241 6.49413181 20.99975586 9.88696289 C21.00265625 11.23830322 21.00265625 11.23830322 21.00561523 12.61694336 C21.00110352 13.56456543 20.9965918 14.5121875 20.99194336 15.48852539 C20.99000977 16.46063965 20.98807617 17.43275391 20.98608398 18.43432617 C20.9390175 26.36110598 20.55573147 34.21706174 19.86694336 42.11352539 C23.19856016 41.43328809 25.91765385 40.17620351 28.92944336 38.61352539 C34.94536889 35.50152782 39.75323748 34.79610332 46.42944336 34.42602539 C47.30536133 34.36608398 48.1812793 34.30614258 49.08374023 34.24438477 C49.92098633 34.19733398 50.75823242 34.1502832 51.62084961 34.10180664 C52.77049194 34.03280151 52.77049194 34.03280151 53.94335938 33.96240234 C55.86694336 34.11352539 55.86694336 34.11352539 57.86694336 36.11352539 C59.100843 36.74992859 60.35345514 37.35059956 61.61694336 37.92602539 C70.57791387 42.40651064 74.29351574 47.77894986 77.86694336 57.11352539 C81.12724394 70.88415475 80.09110425 85.5197594 79.99194336 99.55102539 C79.98189238 102.03604782 79.97277029 104.52107419 79.96459961 107.00610352 C79.94275659 113.04199799 79.90944717 119.07774287 79.86694336 125.11352539 C75.86714733 126.26018506 72.22082451 126.0134901 68.11694336 125.67602539 C67.41956055 125.62381836 66.72217773 125.57161133 66.00366211 125.51782227 C64.29098133 125.38878467 62.5788927 125.25192925 60.86694336 125.11352539 C60.37194336 126.59852539 60.37194336 126.59852539 59.86694336 128.11352539 C57.36395902 125.17523942 56.39763397 122.93449778 55.86694336 119.11352539 C56.52694336 119.11352539 57.18694336 119.11352539 57.86694336 119.11352539 C57.61750977 117.3481543 57.61750977 117.3481543 57.36303711 115.54711914 C56.53421272 108.11100579 56.83896389 100.62922956 56.96289062 93.16015625 C56.99295937 91.21894626 57.01023539 89.27755124 57.02709961 87.33618164 C57.04393799 86.18899658 57.06077637 85.04181152 57.078125 83.85986328 C57.15541557 80.96812292 57.15541557 80.96812292 54.86694336 79.11352539 C55.52694336 79.11352539 56.18694336 79.11352539 56.86694336 79.11352539 C56.4705222 69.7044662 56.4705222 69.7044662 52.86694336 61.11352539 C52.86694336 60.45352539 52.86694336 59.79352539 52.86694336 59.11352539 C43.98101831 55.51112334 36.87170347 55.11199535 27.67944336 58.06665039 C25.36793805 59.40174397 24.84887998 60.67042949 23.86694336 63.11352539 C23.34100586 64.22727539 23.34100586 64.22727539 22.80444336 65.36352539 C20.36831487 72.50950229 20.73193797 80.15623289 20.76928711 87.61352539 C20.77140953 89.22795532 20.77140953 89.22795532 20.77357483 90.875 C20.77913956 94.28787095 20.79168549 97.70067452 20.80444336 101.11352539 C20.80946292 103.43774319 20.81402503 105.76196202 20.81811523 108.08618164 C20.82909743 113.76198559 20.84580016 119.43775068 20.86694336 125.11352539 C18.36197332 126.36601041 16.65841062 126.22726946 13.85913086 126.21118164 C12.87299805 126.20795898 11.88686523 126.20473633 10.87084961 126.20141602 C9.83831055 126.19303711 8.80577148 126.1846582 7.74194336 126.17602539 C6.1815332 126.16925781 6.1815332 126.16925781 4.58959961 126.16235352 C2.01532374 126.15054491 -0.5588381 126.13407614 -3.13305664 126.11352539 C-3.15638566 109.83282236 -3.17403583 93.55212473 -3.18486881 77.27140903 C-3.19003176 69.7125092 -3.19707444 62.15361974 -3.20849609 54.59472656 C-3.21844296 48.00872873 -3.22491007 41.42273841 -3.22714514 34.83673328 C-3.22845224 31.34739468 -3.23153806 27.85807755 -3.2387867 24.3687458 C-3.24680062 20.47971307 -3.24704778 16.59070161 -3.24658203 12.70166016 C-3.25017731 11.53641312 -3.25377258 10.37116608 -3.25747681 9.17060852 C-3.25610214 8.1174646 -3.25472748 7.06432068 -3.25331116 5.97926331 C-3.25469385 4.59795652 -3.25469385 4.59795652 -3.25610447 3.18874454 C-3.08723072 0.34066465 -2.85023548 0.15169503 0 0 Z M20.86694336 43.11352539 C21.86694336 45.11352539 21.86694336 45.11352539 21.86694336 45.11352539 Z " fill="#2E343B" transform="translate(555.133056640625,429.886474609375)"/>
<path d="M0 0 C1.06226807 0.16226074 2.12453613 0.32452148 3.21899414 0.49169922 C6.04618492 0.87177355 8.65855869 1.12823636 11.49609375 1.1328125 C12.29257324 1.13474609 13.08905273 1.13667969 13.90966797 1.13867188 C14.74385254 1.13416016 15.57803711 1.12964844 16.4375 1.125 C17.76998779 1.12209961 17.76998779 1.12209961 19.12939453 1.11914062 C24.23280289 1.08613852 29.28437432 0.89029989 34.375 0.5 C41.84591805 -0.03253445 49.30867141 -0.14388939 56.79571533 -0.17724609 C58.17818284 -0.18406368 59.56063785 -0.19429911 60.9430542 -0.20800781 C62.89686447 -0.22589112 64.8507964 -0.22847828 66.8046875 -0.23046875 C67.94921387 -0.23457764 69.09374023 -0.23868652 70.27294922 -0.24291992 C73 0 73 0 75 2 C75.22705078 4.15478516 75.22705078 4.15478516 75.1953125 6.7890625 C75.18886719 7.73007812 75.18242187 8.67109375 75.17578125 9.640625 C75.15064453 11.11789062 75.15064453 11.11789062 75.125 12.625 C75.11597656 13.61757813 75.10695313 14.61015625 75.09765625 15.6328125 C75.07404116 18.08878134 75.04110799 20.54427168 75 23 C67.91586059 23.02529271 60.83173277 23.04284261 53.74755859 23.05493164 C51.33609583 23.05996974 48.92463614 23.06680034 46.51318359 23.07543945 C43.05305221 23.08752787 39.5929611 23.09323344 36.1328125 23.09765625 C35.04944611 23.10281754 33.96607971 23.10797882 32.84988403 23.11329651 C31.8489975 23.11337204 30.84811096 23.11344757 29.81689453 23.11352539 C28.93309113 23.115746 28.04928772 23.11796661 27.13870239 23.12025452 C25 23 25 23 23 22 C23.16749756 22.68860107 23.33499512 23.37720215 23.50756836 24.08666992 C24.05995917 27.35473118 24.0149856 30.30201716 23.87890625 33.61328125 C23.83056641 34.86044922 23.78222656 36.10761719 23.73242188 37.39257812 C23.67634766 38.68615234 23.62027344 39.97972656 23.5625 41.3125 C23.51029297 42.62541016 23.45808594 43.93832031 23.40429688 45.29101562 C23.2748336 48.52759739 23.13987458 51.76385421 23 55 C23.74991211 54.9292627 24.49982422 54.85852539 25.27246094 54.78564453 C33.58161397 54.066899 41.83739622 53.84391583 50.17041016 53.86962891 C52.2894572 53.87510191 54.40830217 53.86958648 56.52734375 53.86328125 C57.87760463 53.86394026 59.22786539 53.86521774 60.578125 53.8671875 C61.78887695 53.86831543 62.99962891 53.86944336 64.24707031 53.87060547 C67 54 67 54 68 55 C68 61.93 68 68.86 68 76 C53.48 76.33 38.96 76.66 24 77 C24.03947583 90.50697838 24.03947583 90.50697838 24.09008789 104.01391602 C24.09301106 105.71891212 24.09555867 107.42390893 24.09765625 109.12890625 C24.10277222 109.99994995 24.10788818 110.87099365 24.11315918 111.76843262 C24.11328003 112.62030151 24.11340088 113.47217041 24.11352539 114.34985352 C24.115746 115.08043472 24.11796661 115.81101593 24.12025452 116.56373596 C23.96409569 119.72739381 23.44795349 122.86432555 23 126 C17.72 126 12.44 126 7 126 C6.505 126.99 6.505 126.99 6 128 C2 128 2 128 0.27227783 126.89526367 C-1.58355334 124.13070289 -1.3669093 121.98841255 -1.35644531 118.67578125 C-1.35940613 117.35740265 -1.36236694 116.03902405 -1.36541748 114.68069458 C-1.35335902 113.22462659 -1.34091651 111.76856174 -1.328125 110.3125 C-1.32539505 108.79515753 -1.32389461 107.27781241 -1.32354736 105.76046753 C-1.31853198 101.68372371 -1.29428602 97.60730232 -1.26589966 93.53066254 C-1.24476044 90.16604734 -1.23469176 86.80143689 -1.22460938 83.4367733 C-1.13871081 55.61899836 -0.7278308 27.80855639 0 0 Z " fill="#2E343C" transform="translate(321,429)"/>
<path d="M0 0 C9.84969484 9.24520094 15.21997348 20.25934907 16.40234375 33.75 C16.78267354 48.00235855 12.12053952 60.745601 2.5390625 71.28125 C-7.85558898 81.11833397 -20.75468254 83.66869913 -34.50390625 83.34375 C-44.46815523 82.81688951 -53.12110308 79.27297627 -60.8359375 73.03125 C-61.75632812 72.31388672 -61.75632812 72.31388672 -62.6953125 71.58203125 C-71.4474939 63.89482768 -76.25020598 51.40504132 -77.046875 40.015625 C-77.48900933 25.66326458 -73.45524557 12.96068158 -63.6484375 2.21875 C-45.86405348 -13.87375678 -18.75832373 -15.64298375 0 0 Z M-48.6484375 17.59375 C-53.23654081 23.20841524 -54.46674864 29.5239558 -55.2109375 36.59375 C-54.24383674 45.45884027 -51.48179392 52.54390907 -44.9609375 58.78125 C-38.89997047 63.14514626 -33.12622796 63.75350788 -25.8359375 63.03125 C-19.62565696 61.62680493 -14.3001295 58.60550932 -10.61328125 53.2578125 C-5.86260006 45.18676273 -5.60506019 35.53454665 -7.33203125 26.41015625 C-9.75492252 19.38787817 -14.51104507 14.66469885 -20.8359375 11.03125 C-31.37052095 7.64755082 -41.02180552 9.8558963 -48.6484375 17.59375 Z " fill="#2E333B" transform="translate(723.8359375,474.96875)"/>
<path d="M0 0 C9.65019427 6.83777577 16.53046858 17.90554029 18.58203125 29.6015625 C20.17208432 45.12350918 16.85391946 58.85446268 7.015625 71.12890625 C-0.58855316 79.2460138 -12.09442556 84.69663992 -23.17578125 85.2421875 C-38.31846149 85.6124526 -49.71587595 82.70793718 -61.13671875 72.1953125 C-70.9513035 61.86530098 -74.67014559 49.4931441 -74.41796875 35.59375 C-73.52333703 22.54348723 -68.40946102 11.10926881 -58.87890625 2.08203125 C-41.11477972 -11.55507598 -18.74514254 -11.5114401 0 0 Z M-45.984375 19.62890625 C-52.16865797 27.32741869 -52.72897935 35.11548299 -51.73828125 44.73046875 C-50.52391894 51.74864539 -47.70147795 56.37136531 -42.08203125 60.75 C-35.87565528 64.82412411 -29.52264755 65.9969454 -22.171875 65.00390625 C-15.08355569 63.1623331 -10.00281599 59.23307859 -6.171875 53.00390625 C-2.24487223 43.27723747 -2.39453245 34.71024216 -6.171875 25.00390625 C-7.35186559 22.7207827 -8.53318021 21.01262889 -10.171875 19.00390625 C-10.831875 19.00390625 -11.491875 19.00390625 -12.171875 19.00390625 C-12.171875 18.34390625 -12.171875 17.68390625 -12.171875 17.00390625 C-13.265 16.36453125 -14.358125 15.72515625 -15.484375 15.06640625 C-16.09925781 14.70675781 -16.71414063 14.34710938 -17.34765625 13.9765625 C-27.41534605 8.60856515 -38.48874977 11.91465861 -45.984375 19.62890625 Z " fill="#2D323A" transform="translate(823.171875,472.99609375)"/>
<path d="M0 0 C2.5654594 2.5654594 2.54046087 4.47686668 3 8 C5.01507538 6.99471631 7.02795722 5.98577992 9.03515625 4.96484375 C10.03869141 4.45630859 10.03869141 4.45630859 11.0625 3.9375 C12.06990234 3.42509766 12.06990234 3.42509766 13.09765625 2.90234375 C20.62544071 -0.66833019 32.94072361 -0.23006712 41 1.9375 C47.76418927 4.76591839 54.03045824 10.56393554 57.5 17 C60.44327579 24.30932651 61.34071934 31.80667247 61.6875 39.625 C61.73455078 40.43195313 61.78160156 41.23890625 61.83007812 42.0703125 C62.06802253 46.87600926 61.84470435 51.26203425 61 56 C61.66 56 62.32 56 63 56 C62.67 56.99 62.34 57.98 62 59 C61.93008934 60.51024505 61.91558905 62.02345274 61.9375 63.53515625 C61.94910156 64.87416992 61.94910156 64.87416992 61.9609375 66.24023438 C61.98660078 68.09440632 62.01263112 69.94857322 62.0390625 71.80273438 C62.09167809 77.93683501 61.73887906 83.91002027 61 90 C61.66 90.33 62.32 90.66 63 91 C59.3754207 91.19632025 55.75032733 91.38055978 52.125 91.5625 C50.57619141 91.64661133 50.57619141 91.64661133 48.99609375 91.73242188 C48.00996094 91.78076172 47.02382813 91.82910156 46.0078125 91.87890625 C44.64100342 91.94960327 44.64100342 91.94960327 43.24658203 92.02172852 C41 92 41 92 39 91 C38.99453156 89.99974289 38.99453156 89.99974289 38.98895264 88.97927856 C38.94695629 82.00276552 38.87749096 75.02689988 38.79248047 68.05078125 C38.7643546 65.45156345 38.74309864 62.85226145 38.72900391 60.25292969 C38.70745903 56.50412143 38.66074623 52.75631666 38.609375 49.0078125 C38.60814636 47.85636749 38.60691772 46.70492249 38.60565186 45.51858521 C38.47974775 38.4925829 37.75116964 32.09967601 34 26 C29.41020315 22.05511098 25.1945558 21.69817159 19.30859375 21.78515625 C14.38413967 22.24343878 10.94509946 24.22291822 7.1875 27.3125 C3.57215824 31.75420559 2.75759762 36.19030867 2.68115234 41.82177734 C2.66128265 42.94248627 2.64141296 44.06319519 2.62094116 45.21786499 C2.60361435 47.00881088 2.60361435 47.00881088 2.5859375 48.8359375 C2.56657135 50.07042633 2.5472052 51.30491516 2.5272522 52.57681274 C2.46759903 56.50947212 2.42112737 60.442161 2.375 64.375 C2.33787457 67.04560453 2.29775475 69.71615364 2.2578125 72.38671875 C2.16190891 78.92438021 2.07782462 85.46209934 2 92 C-5.26 92 -12.52 92 -20 92 C-21.23096121 88.30711638 -21.23247034 84.82740673 -21.31640625 80.9765625 C-21.3373233 80.17126099 -21.35824036 79.36595947 -21.37979126 78.53625488 C-21.44624892 75.89927028 -21.50508442 73.26219612 -21.5625 70.625 C-21.58301422 69.72618103 -21.60352844 68.82736206 -21.62466431 67.90130615 C-21.76737442 61.60116292 -21.89106011 55.30081485 -22 49 C-22.01309204 48.24428711 -22.02618408 47.48857422 -22.03967285 46.70996094 C-22.28916048 31.62753339 -22.08088279 16.95634503 -20 2 C-13.4 2 -6.8 2 0 2 C0 1.34 0 0.68 0 0 Z M2 9 C3 11 3 11 3 11 Z " fill="#2E343C" transform="translate(473,464)"/>
<path d="M0 0 C1.19496094 -0.00386719 2.38992187 -0.00773437 3.62109375 -0.01171875 C4.87019531 -0.00011719 6.11929688 0.01148438 7.40625 0.0234375 C8.65535156 0.01183594 9.90445313 0.00023437 11.19140625 -0.01171875 C12.98384766 -0.00591797 12.98384766 -0.00591797 14.8125 0 C15.90884766 0.00338379 17.00519531 0.00676758 18.13476562 0.01025391 C21.31960946 0.45633404 21.9885528 0.90222649 23.90625 3.3984375 C24.28377342 5.47711182 24.28377342 5.47711182 24.28720093 7.91503906 C24.29989014 9.30305725 24.29989014 9.30305725 24.31283569 10.71911621 C24.306763 11.73219849 24.30069031 12.74528076 24.29443359 13.7890625 C24.29969055 14.85757446 24.30494751 15.92608643 24.31036377 17.02697754 C24.32359403 20.56761182 24.3148147 24.10779845 24.3046875 27.6484375 C24.30670736 30.10319099 24.30961805 32.55794389 24.31338501 35.01269531 C24.31781248 40.16086533 24.31136355 45.30887934 24.29736328 50.45703125 C24.28027137 57.06508806 24.29011027 63.67277936 24.30808067 70.28082275 C24.31890698 75.35077685 24.31547743 80.4206439 24.3076973 85.49060059 C24.3056921 87.92753136 24.30816569 90.36446997 24.31513596 92.8013916 C24.32273128 96.20374572 24.31117257 99.60550298 24.29443359 103.0078125 C24.30354263 104.52743591 24.30354263 104.52743591 24.31283569 106.07775879 C24.30437622 107.00310425 24.29591675 107.92844971 24.28720093 108.88183594 C24.28606985 109.68635193 24.28493877 110.49086792 24.28377342 111.31976318 C23.80999755 113.92841124 23.00217355 114.81600193 20.90625 116.3984375 C18.2265625 116.77075195 18.2265625 116.77075195 15.03125 116.76171875 C13.88140625 116.76107422 12.7315625 116.76042969 11.546875 116.75976562 C10.34546875 116.74365234 9.1440625 116.72753906 7.90625 116.7109375 C6.70484375 116.71416016 5.5034375 116.71738281 4.265625 116.72070312 C-4.69321075 116.66546367 -4.69321075 116.66546367 -8.09375 114.3984375 C-9.03104598 111.58654956 -9.22323311 109.86730098 -9.23419189 106.95776367 C-9.23990204 106.04924652 -9.24561218 105.14072937 -9.25149536 104.2046814 C-9.25261322 103.2103006 -9.25373108 102.2159198 -9.25488281 101.19140625 C-9.25984772 100.14240143 -9.26481262 99.09339661 -9.26992798 98.01260376 C-9.28455264 94.53704172 -9.29135108 91.06152527 -9.296875 87.5859375 C-9.30262488 85.17602537 -9.30838263 82.76611326 -9.31414795 80.35620117 C-9.3246579 75.30224392 -9.33050105 70.24830258 -9.33398438 65.19433594 C-9.33947817 58.70738222 -9.36352526 52.22063744 -9.39195633 45.73374939 C-9.41054384 40.75646339 -9.41578617 35.77922819 -9.41732025 30.8019104 C-9.4203546 28.40962579 -9.42840924 26.01734224 -9.44150543 23.62509155 C-9.45848934 20.28505336 -9.45670466 16.94553215 -9.45019531 13.60546875 C-9.4594101 12.61108795 -9.46862488 11.61670715 -9.4781189 10.5921936 C-9.47254974 9.68367645 -9.46698059 8.7751593 -9.46124268 7.83911133 C-9.46344252 6.65446037 -9.46344252 6.65446037 -9.4656868 5.44587708 C-8.49915557 0.12531106 -4.71298188 0.01454624 0 0 Z " fill="#9CD6C2" transform="translate(210.09375,432.6015625)"/>
<path d="M0 0 C1.19173828 -0.00064453 2.38347656 -0.00128906 3.61132812 -0.00195312 C5.47241211 0.02801758 5.47241211 0.02801758 7.37109375 0.05859375 C9.23797852 0.04795898 9.23797852 0.04795898 11.14257812 0.03710938 C20.19373211 0.10081539 20.19373211 0.10081539 22.45655823 1.55552673 C24.50767082 4.49947411 24.22621902 7.48828413 24.19677734 10.94921875 C24.2020343 11.70561646 24.20729126 12.46201416 24.21270752 13.24133301 C24.22591789 15.74312961 24.21716607 18.24429061 24.20703125 20.74609375 C24.20905169 22.48339968 24.21196289 24.22070479 24.21572876 25.95800781 C24.22015351 29.59969149 24.21371629 33.24115447 24.19970703 36.8828125 C24.18261497 41.55382859 24.19245536 46.22432759 24.21042442 50.89532471 C24.22125824 54.48294988 24.21781779 58.0704522 24.21004105 61.65808105 C24.20803792 63.38049378 24.21050225 65.10291762 24.21747971 66.82531738 C24.2250877 69.2315023 24.21349987 71.63684655 24.19677734 74.04296875 C24.20588638 75.11375671 24.20588638 75.11375671 24.21517944 76.20617676 C24.17803743 79.08680503 24.13033493 81.03430091 22.45655823 83.43666077 C18.33532161 86.0860953 12.09247783 84.96048926 7.37109375 84.93359375 C6.13037109 84.95357422 4.88964844 84.97355469 3.61132812 84.99414062 C1.8237207 84.99317383 1.8237207 84.99317383 0 84.9921875 C-1.09111084 84.99404053 -2.18222168 84.99589355 -3.30639648 84.99780273 C-6.98270877 84.35848465 -7.94012013 83.44883518 -10.19140625 80.49609375 C-10.58648747 77.89867919 -10.73943413 75.72372553 -10.70898438 73.12890625 C-10.71599365 72.39347595 -10.72300293 71.65804565 -10.73022461 70.90032959 C-10.74780506 68.47353158 -10.73618264 66.04790326 -10.72265625 63.62109375 C-10.72535117 61.93245215 -10.7292336 60.24381207 -10.73425293 58.55517578 C-10.74014801 55.01775321 -10.73158498 51.48073492 -10.71289062 47.94335938 C-10.69010073 43.4102053 -10.70322381 38.87799848 -10.72718048 34.34487915 C-10.74163839 30.85840728 -10.73703258 27.3721598 -10.72666931 23.88568115 C-10.72400199 22.21433398 -10.72727201 20.5429664 -10.73658752 18.87164307 C-10.74675344 16.534974 -10.73125374 14.19983631 -10.70898438 11.86328125 C-10.7170813 11.17329041 -10.72517822 10.48329956 -10.73352051 9.7723999 C-10.67484096 6.44705087 -10.37947554 4.74276163 -8.33937073 2.06700134 C-5.45373838 -0.04339751 -3.55349711 -0.00603488 0 0 Z " fill="#9DD6C2" transform="translate(167.19140625,464.50390625)"/>
<path d="M0 0 C0 0.33 0 0.66 0 1 C0.85464844 1.04898437 1.70929688 1.09796875 2.58984375 1.1484375 C4.24693359 1.26058594 4.24693359 1.26058594 5.9375 1.375 C7.59072266 1.47941406 7.59072266 1.47941406 9.27734375 1.5859375 C10.62505859 1.79089844 10.62505859 1.79089844 12 2 C13.60344035 5.20688071 13.12922745 8.69182847 13.11352539 12.21337891 C13.11367142 13.0622316 13.11381744 13.91108429 13.1139679 14.78565979 C13.11326966 17.59931977 13.1054814 20.41291404 13.09765625 23.2265625 C13.09579175 25.17426518 13.094368 27.12196832 13.09336853 29.06967163 C13.08954583 34.20220224 13.07971765 39.33470467 13.06866455 44.46722412 C13.05844512 49.70210387 13.05386977 54.93698816 13.04882812 60.171875 C13.03809517 70.44792907 13.0210217 80.72396219 13 91 C10.10425766 91.16839208 7.20842326 91.33477385 4.3125 91.5 C3.08756836 91.57154297 3.08756836 91.57154297 1.83789062 91.64453125 C-2.11353058 91.86849844 -6.04018757 92.06451833 -10 92 C-11.09546033 71.8913106 -11.07480654 51.81036997 -10.96289062 31.67822266 C-10.95866089 30.60122101 -10.95443115 29.52421936 -10.95007324 28.4145813 C-10.94185851 26.36741943 -10.92942756 24.32026896 -10.91223145 22.27316284 C-10.90896851 21.35866364 -10.90570557 20.44416443 -10.90234375 19.50195312 C-10.89710693 18.70180786 -10.89187012 17.9016626 -10.88647461 17.07727051 C-10.91911566 14.80267448 -10.91911566 14.80267448 -12 12 C-11.67619874 10.66431979 -11.34342449 9.33076989 -11 8 C-11.33 7.34 -11.66 6.68 -12 6 C-11.34 6 -10.68 6 -10 6 C-10.33 5.01 -10.66 4.02 -11 3 C-8.21756596 -1.17365106 -4.53441502 -0.22300402 0 0 Z " fill="#2E333C" transform="translate(421,464)"/>
<path d="M0 0 C1.6387207 0.00386719 1.6387207 0.00386719 3.31054688 0.0078125 C4.44685547 0.03617187 5.58316406 0.06453125 6.75390625 0.09375 C7.88634766 0.09117187 9.01878906 0.08859375 10.18554688 0.0859375 C20.88293811 0.21201165 20.88293811 0.21201165 24.31640625 3.59375 C25.05497285 7.15048048 24.94397258 10.66160303 24.875 14.28125 C24.87150291 15.86232544 24.87150291 15.86232544 24.86793518 17.4753418 C24.85818836 19.70467211 24.83638003 21.93397729 24.8034668 24.16308594 C24.75409839 27.58044994 24.74198981 30.9963743 24.73632812 34.4140625 C24.72224095 36.57814036 24.70603613 38.74220568 24.6875 40.90625 C24.6821373 41.93129639 24.6767746 42.95634277 24.67124939 44.01245117 C24.65526199 44.9635376 24.6392746 45.91462402 24.62280273 46.89453125 C24.60684303 48.15003784 24.60684303 48.15003784 24.59056091 49.4309082 C24.31640625 51.59375 24.31640625 51.59375 22.31640625 54.59375 C17.46938645 56.20942327 12.51805177 55.90312944 7.44140625 55.96875 C5.80751953 56.02482422 5.80751953 56.02482422 4.140625 56.08203125 C3.08746094 56.09363281 2.03429687 56.10523438 0.94921875 56.1171875 C-0.01097168 56.13700684 -0.97116211 56.15682617 -1.96044922 56.17724609 C-5.9832228 55.31527471 -7.31697049 53.95018656 -9.68359375 50.59375 C-10.39482167 47.2020315 -10.36108945 43.8928317 -10.3125 40.4375 C-10.31491196 39.45761108 -10.31732391 38.47772217 -10.31980896 37.46813965 C-10.3188313 35.40043076 -10.305457 33.33269543 -10.28051758 31.26513672 C-10.24620758 28.10423667 -10.25986363 24.94613291 -10.27929688 21.78515625 C-10.2723982 19.77342563 -10.26272562 17.7617022 -10.25 15.75 C-10.25495987 14.80717163 -10.25991974 13.86434326 -10.26502991 12.89294434 C-10.19099496 8.75828647 -10.00123505 6.17936941 -8.00341797 2.49609375 C-5.12786808 0.13803389 -3.68954585 -0.02630053 0 0 Z " fill="#9DD6C2" transform="translate(122.68359375,494.40625)"/>
<path d="M0 0 C3.23553145 2.67283032 5.41502762 5.12721681 7 9 C7.32794891 13.62492058 6.62984822 17.74002926 3.75 21.4375 C-0.59126178 25.48276666 -4.0166902 26.47856856 -10.0078125 26.3203125 C-14.12712613 25.65799148 -16.91346568 23.20350572 -19.6328125 20.19140625 C-22.18927202 16.09376685 -21.79928763 11.63848884 -21 7 C-18.80532857 2.61065715 -16.0317942 0.4776825 -11.625 -1.5625 C-7.2635751 -2.08887887 -4.01646624 -1.79728426 0 0 Z " fill="#30353D" transform="translate(429,429)"/>
<path d="M0 0 C2.09779951 1.68744056 2.93037344 2.55512299 3.35352612 5.25884533 C3.34338639 6.14837556 3.33324667 7.03790579 3.32279968 7.95439148 C3.31850952 8.97662811 3.31421936 9.99886475 3.30979919 11.05207825 C3.28966263 12.17273178 3.26952606 13.29338531 3.2487793 14.44799805 C3.23946381 15.62861816 3.23014832 16.80923828 3.22055054 18.02563477 C3.19204634 21.26320519 3.1501142 24.50027026 3.10225272 27.737602 C3.05539602 31.1207631 3.02564666 34.50407317 2.99409485 37.8874054 C2.93174096 44.29422901 2.85396718 50.70076925 2.77067453 57.10735112 C2.67659834 64.4009945 2.59967955 71.69478708 2.52421319 78.98864305 C2.36858797 93.99267579 2.19077099 108.99637002 2 124 C11.405 123.505 11.405 123.505 21 123 C21 107.16 21 91.32 21 75 C23.30820508 73.84589746 24.60784276 73.8789703 27.17431641 73.88647461 C28.46542831 73.88658791 28.46542831 73.88658791 29.78262329 73.88670349 C30.71287323 73.89186478 31.64312317 73.89702606 32.6015625 73.90234375 C33.55316254 73.9037587 34.50476257 73.90517365 35.48519897 73.90663147 C38.53183097 73.91223988 41.57839013 73.92479381 44.625 73.9375 C46.68749894 73.94251392 48.74999903 73.94707701 50.8125 73.95117188 C55.87502817 73.96221204 60.93750173 73.97948233 66 74 C66 68.06 66 62.12 66 56 C66.33 56 66.66 56 67 56 C67 62.27 67 68.54 67 75 C45.715 75.99 45.715 75.99 24 77 C24.03947583 90.50697838 24.03947583 90.50697838 24.09008789 104.01391602 C24.09301106 105.71891212 24.09555867 107.42390893 24.09765625 109.12890625 C24.10277222 109.99994995 24.10788818 110.87099365 24.11315918 111.76843262 C24.11328003 112.62030151 24.11340088 113.47217041 24.11352539 114.34985352 C24.115746 115.08043472 24.11796661 115.81101593 24.12025452 116.56373596 C23.96409569 119.72739381 23.44795349 122.86432555 23 126 C17.72 126 12.44 126 7 126 C6.505 126.99 6.505 126.99 6 128 C2 128 2 128 0.27227783 126.89526367 C-1.58355334 124.13070289 -1.3669093 121.98841255 -1.35644531 118.67578125 C-1.35940613 117.35740265 -1.36236694 116.03902405 -1.36541748 114.68069458 C-1.35335902 113.22462659 -1.34091651 111.76856174 -1.328125 110.3125 C-1.32539505 108.79515753 -1.32389461 107.27781241 -1.32354736 105.76046753 C-1.31853198 101.68372371 -1.29428602 97.60730232 -1.26589966 93.53066254 C-1.24476044 90.16604734 -1.23469176 86.80143689 -1.22460938 83.4367733 C-1.13871081 55.61899836 -0.7278308 27.80855639 0 0 Z " fill="#20252B" transform="translate(321,429)"/>
<path d="M0 0 C0.33 0 0.66 0 1 0 C1 39.6 1 79.2 1 120 C6.94 120 12.88 120 19 120 C18.98428955 118.50218994 18.9685791 117.00437988 18.95239258 115.46118164 C18.89787313 109.87578766 18.86356981 104.29041697 18.83520508 98.70483398 C18.82016855 96.2926843 18.79973401 93.88056172 18.77368164 91.46850586 C18.73707268 87.99065436 18.72022171 84.51316606 18.70703125 81.03515625 C18.69154739 79.96604507 18.67606354 78.8969339 18.66011047 77.79542542 C18.65798817 68.23839862 20.22385391 60.94554974 27 54 C27.99 53.34 28.98 52.68 30 52 C30.99 52.33 31.98 52.66 33 53 C29.25 56 29.25 56 27 56 C22.12487069 65.40203511 21.85018913 74.08657916 21.90234375 84.5 C21.90446617 86.11442993 21.90446617 86.11442993 21.90663147 87.76147461 C21.9121962 91.17434555 21.92474213 94.58714913 21.9375 98 C21.94251956 100.3242178 21.94708167 102.64843663 21.95117188 104.97265625 C21.96215407 110.6484602 21.9788568 116.32422529 22 122 C19.49502996 123.25248502 17.79146726 123.11374406 14.9921875 123.09765625 C14.00605469 123.09443359 13.01992188 123.09121094 12.00390625 123.08789062 C10.97136719 123.07951172 9.93882812 123.07113281 8.875 123.0625 C7.31458984 123.05573242 7.31458984 123.05573242 5.72265625 123.04882812 C3.14838038 123.03701952 0.57421854 123.02055075 -2 123 C-2.04667656 107.25811163 -2.08196748 91.51624188 -2.10362434 75.77430153 C-2.11394632 68.46539627 -2.12802417 61.15653395 -2.15087891 53.84765625 C-2.17078467 47.4788254 -2.18370973 41.11002565 -2.18817699 34.74116457 C-2.19078916 31.3674595 -2.19694785 27.99384339 -2.21146011 24.62016678 C-2.22589009 20.85821413 -2.22798151 17.09644833 -2.22705078 13.33447266 C-2.23424133 12.21022385 -2.24143188 11.08597504 -2.24884033 9.92765808 C-2.246091 8.90679611 -2.24334167 7.88593414 -2.24050903 6.83413696 C-2.24235262 5.94368494 -2.24419621 5.05323292 -2.24609566 4.1357975 C-2 2 -2 2 0 0 Z " fill="#1B1F26" transform="translate(554,433)"/>
<path d="M0 0 C0.66 0.33 1.32 0.66 2 1 C2.66953763 29.30933301 3.10883244 57.61011338 3.12338257 85.92705536 C3.1249996 87.99949108 3.12855817 90.07191579 3.13256836 92.14434814 C3.13950299 96.03374425 3.13699448 99.923099 3.1328125 103.8125 C3.13479645 104.97478119 3.1367804 106.13706238 3.13882446 107.33456421 C3.13571259 108.40622833 3.13260071 109.47789246 3.12939453 110.58203125 C3.12859894 111.51249268 3.12780334 112.4429541 3.12698364 113.40161133 C2.99877503 116.0250659 2.58215252 118.44212606 2 121 C2.66 121.33 3.32 121.66 4 122 C0.96865616 123.01044795 -0.74395943 123.05032949 -3.88671875 122.87890625 C-4.82451172 122.83056641 -5.76230469 122.78222656 -6.72851562 122.73242188 C-7.70498047 122.67634766 -8.68144531 122.62027344 -9.6875 122.5625 C-10.67556641 122.51029297 -11.66363281 122.45808594 -12.68164062 122.40429688 C-15.12141676 122.27464694 -17.56078105 122.13968258 -20 122 C-20.125 118.625 -20.125 118.625 -20 115 C-19.01 114.01 -19.01 114.01 -18 113 C-18 115.31 -18 117.62 -18 120 C-12.06 120 -6.12 120 0 120 C0 80.4 0 40.8 0 0 Z " fill="#1A1D22" transform="translate(940,433)"/>
<path d="M0 0 C2.55855938 2.22483424 3.39138924 3.68696914 4 7 C4.0856191 8.80207506 4.11774058 10.60702988 4.11352539 12.41113281 C4.11341209 14.03236053 4.11341209 14.03236053 4.11329651 15.68634033 C4.10813522 16.84687927 4.10297394 18.00741821 4.09765625 19.203125 C4.0962413 20.39605164 4.09482635 21.58897827 4.09336853 22.8180542 C4.08777038 26.62872829 4.07521819 30.43934366 4.0625 34.25 C4.05748476 36.83333248 4.0529219 39.41666589 4.04882812 42 C4.03780155 48.33335596 4.02053814 54.66666803 4 61 C9.94 61 15.88 61 22 61 C22 40.87 22 20.74 22 0 C24.34354119 2.34354119 24.28663449 2.91722268 24.44921875 6.10546875 C24.49240234 6.92466797 24.53558594 7.74386719 24.58007812 8.58789062 C24.63325195 9.87469727 24.63325195 9.87469727 24.6875 11.1875 C24.73455078 12.02603516 24.78160156 12.86457031 24.83007812 13.72851562 C25.06430994 18.64738378 24.87239858 23.1526124 24 28 C24.66 28 25.32 28 26 28 C25.67 28.99 25.34 29.98 25 31 C24.93008934 32.51024505 24.91558905 34.02345274 24.9375 35.53515625 C24.94523438 36.42783203 24.95296875 37.32050781 24.9609375 38.24023438 C24.98660078 40.09440632 25.01263112 41.94857322 25.0390625 43.80273438 C25.09167809 49.93683501 24.73887906 55.91002027 24 62 C24.66 62.33 25.32 62.66 26 63 C22.3754207 63.19632025 18.75032733 63.38055978 15.125 63.5625 C13.57619141 63.64661133 13.57619141 63.64661133 11.99609375 63.73242188 C10.51689453 63.80493164 10.51689453 63.80493164 9.0078125 63.87890625 C8.09660645 63.9260376 7.18540039 63.97316895 6.24658203 64.02172852 C4 64 4 64 2 63 C1.9845388 61.99308105 1.9845388 61.99308105 1.96876526 60.96582031 C1.86029606 53.95742851 1.74573287 46.94915484 1.62768555 39.94091797 C1.58446584 37.32798747 1.54278201 34.71503108 1.50268555 32.10205078 C1.44466798 28.33878796 1.38106509 24.57565387 1.31640625 20.8125 C1.29969376 19.65073242 1.28298126 18.48896484 1.26576233 17.29199219 C1.15986906 11.44901493 0.86774745 5.78086558 0 0 Z " fill="#1E2027" transform="translate(510,492)"/>
<path d="M0 0 C7.26 0 14.52 0 22 0 C22 29.04 22 58.08 22 88 C4 89 4 89 -1 89 C-1 80.42 -1 71.84 -1 63 C-0.67 63 -0.34 63 0 63 C0 70.59 0 78.18 0 86 C6.27 86 12.54 86 19 86 C19 57.95 19 29.9 19 1 C12.73 1 6.46 1 0 1 C0 0.67 0 0.34 0 0 Z " fill="#111419" transform="translate(412,467)"/>
<path d="M0 0 C0.99 0.66 1.98 1.32 3 2 C1.37191406 2.14695312 1.37191406 2.14695312 -0.2890625 2.296875 C-1.73446565 2.44704676 -3.17977353 2.59813732 -4.625 2.75 C-5.69427734 2.8428125 -5.69427734 2.8428125 -6.78515625 2.9375 C-11.78837599 3.48831318 -15.16817315 4.50853599 -19 8 C-23.47141666 14.98677893 -23.6009545 22.05216283 -23.609375 30.12890625 C-23.62591125 31.35915024 -23.64244751 32.58939423 -23.65948486 33.85691833 C-23.70779347 37.75883056 -23.72929896 41.66035347 -23.75 45.5625 C-23.77599384 48.21945926 -23.80810294 50.87630118 -23.83984375 53.53320312 C-23.91354822 60.02206515 -23.96529106 66.51081845 -24 73 C-25.90102159 73.01359491 -27.80207167 73.02324075 -29.703125 73.03125 C-30.76176758 73.03705078 -31.82041016 73.04285156 -32.91113281 73.04882812 C-36.68607471 72.98915468 -40.27185831 72.57356026 -44 72 C-43.505 71.01 -43.505 71.01 -43 70 C-37.39 70 -31.78 70 -26 70 C-26.01571045 68.43636719 -26.0314209 66.87273437 -26.04760742 65.26171875 C-26.10206171 59.43966864 -26.13640672 53.6176409 -26.16479492 47.79541016 C-26.17984619 45.27942108 -26.20029181 42.76345808 -26.22631836 40.24755859 C-26.26286182 36.62330675 -26.27976353 32.999403 -26.29296875 29.375 C-26.30845261 28.25697998 -26.32393646 27.13895996 -26.33988953 25.98706055 C-26.34143138 18.77092772 -25.93842443 12.52856825 -21.1328125 6.7578125 C-14.22006891 1.13616499 -9.06120147 -1.04434186 0 0 Z " fill="#1D2026" transform="translate(499,483)"/>
<path d="M0 0 C6.93 0 13.86 0 21 0 C21 3.3 21 6.6 21 10 C20.67 10 20.34 10 20 10 C20 7.03 20 4.06 20 1 C13.73 1 7.46 1 1 1 C1 29.38 1 57.76 1 87 C0.34 86.67 -0.32 86.34 -1 86 C-2.09627464 47.64496582 -2.09627464 47.64496582 -2.125 29.8125 C-2.12951172 28.69528564 -2.13402344 27.57807129 -2.13867188 26.42700195 C-2.1059112 8.42364479 -2.1059112 8.42364479 0 0 Z " fill="#272A2F" transform="translate(453,467)"/>
<path d="M0 0 C0.33 0 0.66 0 1 0 C1 5.94 1 11.88 1 18 C-4.53179565 18.14348335 -10.0636006 18.28625204 -15.59545898 18.42724609 C-17.47405031 18.47533648 -19.35263132 18.52383196 -21.23120117 18.57275391 C-23.94447199 18.64334072 -26.65777761 18.71242999 -29.37109375 18.78125 C-30.19959335 18.80312378 -31.02809296 18.82499756 -31.88169861 18.84753418 C-34.25439172 18.9069019 -36.62695874 18.95684539 -39 19 C-39.83500031 19.01603271 -40.67000061 19.03206543 -41.53030396 19.04858398 C-42.33764984 19.05768799 -43.14499573 19.06679199 -43.97680664 19.07617188 C-45.06464195 19.0906134 -45.06464195 19.0906134 -46.17445374 19.10534668 C-48 19 -48 19 -50 18 C-49.83250244 18.69311279 -49.66500488 19.38622559 -49.49243164 20.1003418 C-48.94978269 23.29570203 -48.98301048 26.15724579 -49.12109375 29.39453125 C-49.16943359 30.59658203 -49.21777344 31.79863281 -49.26757812 33.03710938 C-49.32365234 34.28298828 -49.37972656 35.52886719 -49.4375 36.8125 C-49.48970703 38.07771484 -49.54191406 39.34292969 -49.59570312 40.64648438 C-49.72513384 43.76458806 -49.86009129 46.88235178 -50 50 C-50.33 50 -50.66 50 -51 50 C-52.05339806 32.18628641 -52.05339806 32.18628641 -52.25 23.4375 C-52.27578125 22.42558594 -52.3015625 21.41367187 -52.328125 20.37109375 C-52.21984375 19.58863281 -52.1115625 18.80617188 -52 18 C-48.75715221 15.83810147 -47.89903779 15.75373245 -44.16137695 15.77294922 C-42.69019157 15.77317581 -42.69019157 15.77317581 -41.18928528 15.77340698 C-40.13295395 15.78372955 -39.07662262 15.79405212 -37.98828125 15.8046875 C-36.90491989 15.8075174 -35.82155853 15.81034729 -34.70536804 15.81326294 C-31.24096692 15.82446909 -27.77682315 15.84957466 -24.3125 15.875 C-21.96549852 15.88502923 -19.618493 15.89415518 -17.27148438 15.90234375 C-11.51422357 15.92440988 -5.75715544 15.95894288 0 16 C0 10.72 0 5.44 0 0 Z " fill="#181A21" transform="translate(394,433)"/>
<path d="M0 0 C3.91528292 0.58004191 6.08615026 2.39357478 9 5 C18.70406606 18.95370222 17.3258569 36.7726084 17.26074219 52.99243164 C17.24989157 56.21974926 17.26076134 59.44652595 17.2734375 62.67382812 C17.272118 64.73437622 17.26955997 66.79492399 17.265625 68.85546875 C17.26967346 69.81583542 17.27372192 70.77620209 17.27789307 71.76567078 C17.27158875 72.65792862 17.26528442 73.55018646 17.25878906 74.46948242 C17.25640228 75.64071907 17.25640228 75.64071907 17.25396729 76.83561707 C16.96963043 79.25881832 16.20584468 80.89571911 15 83 C14.96241577 81.17964233 14.96241577 81.17964233 14.92407227 79.32250977 C14.82850807 74.73568616 14.72867795 70.14896289 14.62768555 65.56225586 C14.58489043 63.59287902 14.54318829 61.62347806 14.50268555 59.65405273 C15.39109515 28.22713466 15.39109515 28.22713466 1.625 1.5 C1.08875 1.005 0.5525 0.51 0 0 Z " fill="#1B1E23" transform="translate(618,470)"/>
<path d="M0 0 C6.32690815 0.82138808 9.76408138 4.46669668 14 9 C22.77435094 20.49102498 26.10248314 32.61259506 25 47 C24.24536199 50.11946294 23.25268949 53.04723192 22 56 C20.87314555 52.61943665 21.24338567 50.44055029 22 47 C22.95153414 33.3674435 20.65820972 21.81446884 12 11 C9.14391302 8.13442436 6.12277999 5.56600527 3 3 C1.98663878 2.01354218 0.98119613 1.01845675 0 0 Z " fill="#202328" transform="translate(715,471)"/>
<path d="M0 0 C2.09044134 -0.00224484 4.1803993 -0.02067087 6.27075195 -0.03930664 C7.60864081 -0.04223161 8.94653211 -0.04422239 10.28442383 -0.04516602 C11.47720947 -0.0492749 12.66999512 -0.05338379 13.89892578 -0.05761719 C16.73364258 0.18530273 16.73364258 0.18530273 18.73364258 2.18530273 C18.96069336 4.34008789 18.96069336 4.34008789 18.92895508 6.97436523 C18.92250977 7.91538086 18.91606445 8.85639648 18.90942383 9.82592773 C18.89266602 10.81077148 18.8759082 11.79561523 18.85864258 12.81030273 C18.84961914 13.80288086 18.8405957 14.79545898 18.83129883 15.81811523 C18.80768374 18.27408407 18.77475057 20.72957442 18.73364258 23.18530273 C18.07364258 22.85530273 17.41364258 22.52530273 16.73364258 22.18530273 C16.73364258 16.24530273 16.73364258 10.30530273 16.73364258 4.18530273 C-6.53135742 3.69030273 -6.53135742 3.69030273 -30.26635742 3.18530273 C-29.93635742 2.52530273 -29.60635742 1.86530273 -29.26635742 1.18530273 C-26.4609375 0.77783203 -26.4609375 0.77783203 -22.72338867 0.57202148 C-21.7204351 0.51603035 -21.7204351 0.51603035 -20.69721985 0.45890808 C-13.80127095 0.10405316 -6.90416454 -0.00083193 0 0 Z " fill="#343A3F" transform="translate(377.266357421875,428.814697265625)"/>
<path d="M0 0 C0.495 1.485 0.495 1.485 1 3 C-4.95511934 13.59809375 -15.75068553 20.3986303 -27.25 23.6328125 C-31.27430718 24.17014897 -35.25801062 24.10410092 -39.3125 24.0625 C-40.14845703 24.05798828 -40.98441406 24.05347656 -41.84570312 24.04882812 C-43.89716649 24.03710548 -45.94859273 24.01917203 -48 24 C-48.33 23.34 -48.66 22.68 -49 22 C-47.74445312 21.96261719 -46.48890625 21.92523437 -45.1953125 21.88671875 C-29.06969875 21.30188532 -15.98194997 18.96521813 -4.40625 6.6796875 C-2.6566732 4.58991521 -1.24758193 2.42177669 0 0 Z " fill="#22252A" transform="translate(834,534)"/>
<path d="M0 0 C-0.53367187 0.25652344 -1.06734375 0.51304687 -1.6171875 0.77734375 C-12.82149906 6.53457651 -21.8238851 14.78426503 -25.9921875 26.87890625 C-27.89884285 33.84273792 -28.63001599 40.80444892 -29 48 C-29.33 48 -29.66 48 -30 48 C-30.63555896 32.9407836 -29.04376203 21.96269218 -19 10 C-7.01300829 -2.31734187 -7.01300829 -2.31734187 0 0 Z " fill="#202328" transform="translate(678,469)"/>
<path d="M0 0 C0.84755859 0.00322266 1.69511719 0.00644531 2.56835938 0.00976562 C3.8899707 0.02233398 3.8899707 0.02233398 5.23828125 0.03515625 C6.57729492 0.04192383 6.57729492 0.04192383 7.94335938 0.04882812 C10.14590112 0.06060642 12.34830724 0.07705461 14.55078125 0.09765625 C14.55078125 0.75765625 14.55078125 1.41765625 14.55078125 2.09765625 C30.06078125 2.09765625 45.57078125 2.09765625 61.55078125 2.09765625 C61.55078125 2.42765625 61.55078125 2.75765625 61.55078125 3.09765625 C38.78078125 3.09765625 16.01078125 3.09765625 -7.44921875 3.09765625 C-7.44921875 2.43765625 -7.44921875 1.77765625 -7.44921875 1.09765625 C-4.6251011 0.1562837 -2.92003843 -0.01959757 0 0 Z " fill="#252A31" transform="translate(332.44921875,429.90234375)"/>
<path d="M0 0 C2.02158682 3.35812762 2.24612223 5.91464345 2.23046875 9.8046875 C2.22917969 10.93994873 2.22789062 12.07520996 2.2265625 13.24487305 C2.21367187 14.44281494 2.20078125 15.64075684 2.1875 16.875 C2.18105469 18.08905518 2.17460937 19.30311035 2.16796875 20.55395508 C2.09782228 28.73643099 1.84297656 36.85624428 1 45 C0.34 45 -0.32 45 -1 45 C-1.02469854 39.07348943 -1.04285931 33.14700875 -1.05493164 27.22045898 C-1.05996382 25.20385211 -1.06679014 23.1872489 -1.07543945 21.1706543 C-1.08755373 18.27391661 -1.09323943 15.37722712 -1.09765625 12.48046875 C-1.10281754 11.57725388 -1.10797882 10.674039 -1.11329651 9.74345398 C-1.11337204 8.90280899 -1.11344757 8.062164 -1.11352539 7.19604492 C-1.115746 6.45658127 -1.11796661 5.71711761 -1.12025452 4.95524597 C-1 3 -1 3 0 0 Z " fill="#4A8A75" transform="translate(267,473)"/>
<path d="M0 0 C3 1 3 1 4.5625 3.1875 C11.39032836 11.06576349 21.47726602 14.62913959 31.6328125 15.3984375 C36.08652103 15.67963689 40.53981084 15.85910078 45 16 C45 16.66 45 17.32 45 18 C29.35999281 18.67429971 16.3465724 17.05861733 4.1171875 6.3515625 C2.4375 4.75 2.4375 4.75 0 2 C0 1.34 0 0.68 0 0 Z " fill="#24272C" transform="translate(657,540)"/>
<path d="M0 0 C0.33 0 0.66 0 1 0 C2.57654644 11.23289336 2.14788944 22.51378718 1.625 33.8125 C1.59422363 34.5955249 1.56344727 35.3785498 1.53173828 36.18530273 C1.23450632 41.76549368 1.23450632 41.76549368 -1 44 C-1.02464513 37.8944529 -1.04283371 31.78893449 -1.05493164 25.68334961 C-1.05997288 23.60456844 -1.06680574 21.52579084 -1.07543945 19.44702148 C-1.08751422 16.46597414 -1.09323024 13.48497351 -1.09765625 10.50390625 C-1.10539818 9.10078941 -1.10539818 9.10078941 -1.11329651 7.66932678 C-1.11337204 6.80850998 -1.11344757 5.94769318 -1.11352539 5.06079102 C-1.115746 4.29912125 -1.11796661 3.53745148 -1.12025452 2.75270081 C-1 1 -1 1 0 0 Z " fill="#181C22" transform="translate(574,433)"/>
<path d="M0 0 C1.485 0.99 1.485 0.99 3 2 C3.43237305 4.53100586 3.43237305 4.53100586 3.51171875 7.71484375 C3.54716797 8.87693359 3.58261719 10.03902344 3.61914062 11.23632812 C3.64169922 12.45771484 3.66425781 13.67910156 3.6875 14.9375 C3.72166016 16.12408203 3.75582031 17.31066406 3.79101562 18.53320312 C4.36075331 39.70651593 4.36075331 39.70651593 3 46 C2.67 46 2.34 46 2 46 C0.79289738 41.20165968 0.7779377 36.45996824 0.68359375 31.54296875 C0.66281265 30.64000565 0.64203156 29.73704254 0.62062073 28.80671692 C0.5554472 25.93371903 0.49639045 23.06063286 0.4375 20.1875 C0.39428414 18.23501706 0.35066888 16.28254292 0.30664062 14.33007812 C0.19979893 9.55347497 0.09844143 4.77678336 0 0 Z " fill="#468570" transform="translate(265,417)"/>
<path d="M0 0 C0.99 0.33 1.98 0.66 3 1 C-0.75 4 -0.75 4 -3 4 C-3.268125 4.53625 -3.53625 5.0725 -3.8125 5.625 C-4.69599055 7.3919811 -5.61915098 9.1392378 -6.5625 10.875 C-9.40534492 17.05509765 -9.19649297 23.52751565 -9.31640625 30.2109375 C-9.33718735 31.17907379 -9.35796844 32.14721008 -9.37937927 33.14468384 C-9.44448984 36.22138732 -9.50357998 39.29817236 -9.5625 42.375 C-9.60572186 44.46745617 -9.6493373 46.55990426 -9.69335938 48.65234375 C-9.80013156 53.76814669 -9.90150636 58.88403125 -10 64 C-10.33 64 -10.66 64 -11 64 C-11.07645954 57.47134965 -11.12877088 50.94281604 -11.16479492 44.41381836 C-11.17982277 42.1956755 -11.20025077 39.97756207 -11.22631836 37.75952148 C-11.26296624 34.55965892 -11.27978688 31.36019139 -11.29296875 28.16015625 C-11.30845261 27.17854019 -11.32393646 26.19692413 -11.33988953 25.18556213 C-11.34212919 15.89159321 -9.57211085 8.73641362 -3 2 C-2.01 1.34 -1.02 0.68 0 0 Z " fill="#13161C" transform="translate(584,485)"/>
<path d="M0 0 C7.13500722 -0.4721696 13.1625746 -0.54021976 19 4 C24.2012223 9.59034118 25.13800092 14.19990843 25.0625 21.75 C25.05347656 22.92046875 25.04445313 24.0909375 25.03515625 25.296875 C25.02355469 26.18890625 25.01195312 27.0809375 25 28 C23.68 27.34 22.36 26.68 21 26 C21.66 26 22.32 26 23 26 C22.60357884 16.59094081 22.60357884 16.59094081 19 8 C19 7.34 19 6.68 19 6 C14.14848868 4.03317109 10.05048456 2.8317569 4.8125 2.4375 C3.18248047 2.31181641 3.18248047 2.31181641 1.51953125 2.18359375 C0.68808594 2.12300781 -0.14335938 2.06242187 -1 2 C-0.67 1.34 -0.34 0.68 0 0 Z " fill="#21252A" transform="translate(589,483)"/>
<path d="M0 0 C0 0.33 0 0.66 0 1 C3.96 1.33 7.92 1.66 12 2 C12 2.33 12 2.66 12 3 C5.07 3 -1.86 3 -9 3 C-9 15.54 -9 28.08 -9 41 C-9.33 41 -9.66 41 -10 41 C-10.02505615 40.22809326 -10.0501123 39.45618652 -10.07592773 38.66088867 C-10.19184007 35.16958819 -10.31458824 31.67856078 -10.4375 28.1875 C-10.47681641 26.97255859 -10.51613281 25.75761719 -10.55664062 24.50585938 C-10.59853516 23.34248047 -10.64042969 22.17910156 -10.68359375 20.98046875 C-10.72025146 19.90692139 -10.75690918 18.83337402 -10.79467773 17.72729492 C-10.89541847 14.90688447 -10.89541847 14.90688447 -12 12 C-11.67619874 10.66431979 -11.34342449 9.33076989 -11 8 C-11.33 7.34 -11.66 6.68 -12 6 C-11.34 6 -10.68 6 -10 6 C-10.33 5.01 -10.66 4.02 -11 3 C-8.21756596 -1.17365106 -4.53441502 -0.22300402 0 0 Z " fill="#282C31" transform="translate(421,464)"/>
<path d="M0 0 C2.5591206 2.22532226 3.39272945 3.68575526 4 7 C4.08578709 8.83269347 4.11773341 10.66823432 4.11352539 12.50292969 C4.11344986 13.60376892 4.11337433 14.70460815 4.11329651 15.83880615 C4.10813522 17.02121887 4.10297394 18.20363159 4.09765625 19.421875 C4.0962413 20.63699768 4.09482635 21.85212036 4.09336853 23.10406494 C4.08776988 26.98606831 4.0752176 30.86801406 4.0625 34.75 C4.05748483 37.38150958 4.05292195 40.01302007 4.04882812 42.64453125 C4.03780089 49.09637383 4.02106408 55.5481828 4 62 C3.67 62 3.34 62 3 62 C2.99191315 61.42085846 2.98382629 60.84171692 2.97549438 60.24502563 C2.88894273 54.17697464 2.7894218 48.10923148 2.68261719 42.04150391 C2.64450856 39.78179118 2.60962525 37.52202154 2.578125 35.26220703 C2.53207877 32.00011958 2.47415186 28.73841796 2.4140625 25.4765625 C2.40251129 24.47823395 2.39096008 23.4799054 2.37905884 22.45132446 C2.26301969 16.84351062 1.70066379 11.64102709 0.42294312 6.1746521 C0 4 0 4 0 0 Z " fill="#11131A" transform="translate(510,492)"/>
<path d="M0 0 C1.485 0.99 1.485 0.99 3 2 C3.29188912 4.79103419 3.39597319 7.35673507 3.36328125 10.1484375 C3.36377975 10.95737457 3.36427826 11.76631165 3.36479187 12.59976196 C3.36244922 14.31295219 3.35270942 16.02614571 3.33618164 17.73925781 C3.31265511 20.35773658 3.31561078 22.97519288 3.32226562 25.59375 C3.31668661 27.25781856 3.30957533 28.92188283 3.30078125 30.5859375 C3.30169266 31.36834808 3.30260406 32.15075867 3.30354309 32.95687866 C3.24986743 37.09015948 2.89532607 39.20934785 1 43 C0.67 28.81 0.34 14.62 0 0 Z " fill="#1F2226" transform="translate(632,510)"/>
<path d="M0 0 C1.55074219 -0.00773437 1.55074219 -0.00773437 3.1328125 -0.015625 C5.875 0.25 5.875 0.25 8.875 2.25 C7.885 2.27578125 6.895 2.3015625 5.875 2.328125 C-2.40097275 2.64042586 -9.54691399 2.92391873 -15.828125 8.859375 C-18.99447061 12.33313281 -21.22715269 15.92712558 -23.125 20.25 C-24.125 17.25 -24.125 17.25 -23.41015625 15.19921875 C-18.34128522 5.82261708 -10.95814582 -0.05492805 0 0 Z " fill="#202329" transform="translate(693.125,482.75)"/>
<path d="M0 0 C0.33 0 0.66 0 1 0 C1.67707237 11.28453949 0.86584632 19.01126607 -6.4375 28 C-9.22018786 30.17185394 -11.59672343 31.12939437 -15 32 C-15 31.34 -15 30.68 -15 30 C-13.390625 28.95703125 -13.390625 28.95703125 -11.25 27.8125 C-6.18474183 24.74291775 -4.05260104 21.48315253 -2.35546875 15.8671875 C-1.08850328 10.63525814 -0.50970313 5.35188283 0 0 Z " fill="#1A1D22" transform="translate(921,506)"/>
<path d="M0 0 C1.23556641 0.01740234 1.23556641 0.01740234 2.49609375 0.03515625 C3.32238281 0.04417969 4.14867187 0.05320312 5 0.0625 C5.63808594 0.07410156 6.27617187 0.08570313 6.93359375 0.09765625 C3.93359375 2.09765625 3.93359375 2.09765625 1.24609375 1.72265625 C0.10140625 1.41328125 0.10140625 1.41328125 -1.06640625 1.09765625 C-0.89890869 1.79076904 -0.73141113 2.48388184 -0.55883789 3.19799805 C-0.01618894 6.39335828 -0.04941673 9.25490204 -0.1875 12.4921875 C-0.23583984 13.69423828 -0.28417969 14.89628906 -0.33398438 16.13476562 C-0.39005859 17.38064453 -0.44613281 18.62652344 -0.50390625 19.91015625 C-0.55611328 21.17537109 -0.60832031 22.44058594 -0.66210938 23.74414062 C-0.79154009 26.86224431 -0.92649754 29.98000803 -1.06640625 33.09765625 C-1.39640625 33.09765625 -1.72640625 33.09765625 -2.06640625 33.09765625 C-3.50983888 8.68817948 -3.50983888 8.68817948 -3.06640625 1.09765625 C-2.06640625 0.09765625 -2.06640625 0.09765625 0 0 Z " fill="#101319" transform="translate(345.06640625,449.90234375)"/>
<path d="M0 0 C0.33 0 0.66 0 1 0 C1 3.96 1 7.92 1 12 C6.94 12 12.88 12 19 12 C15.36804504 14.42130331 13.61650652 14.21022785 9.3125 14.125 C8.13300781 14.10695313 6.95351563 14.08890625 5.73828125 14.0703125 C4.83464844 14.04710937 3.93101562 14.02390625 3 14 C2.67 14.99 2.34 15.98 2 17 C-0.50298434 14.06171403 -1.46930939 11.82097239 -2 8 C-1.34 8 -0.68 8 0 8 C0 5.36 0 2.72 0 0 Z " fill="#191B21" transform="translate(613,541)"/>
<path d="M0 0 C5.91740648 4.28141763 11.51220875 8.90031567 17.0703125 13.6328125 C19.96136115 15.96877981 22.87906481 17.99037704 26 20 C25.01 20.33 24.02 20.66 23 21 C21.1940918 20.01538086 21.1940918 20.01538086 19.19921875 18.46484375 C18.46896484 17.90216797 17.73871094 17.33949219 16.98632812 16.75976562 C16.22771484 16.15841797 15.46910156 15.55707031 14.6875 14.9375 C13.94048828 14.36322266 13.19347656 13.78894531 12.42382812 13.19726562 C7.96889687 9.72797325 3.81043037 6.17390544 0 2 C0 1.34 0 0.68 0 0 Z " fill="#468370" transform="translate(106,562)"/>
<path d="M0 0 C1.8125 0.125 1.8125 0.125 4 1 C7.09802148 5.27313308 7.40304306 8.76208678 6.66015625 13.80859375 C5.5837421 17.38177918 3.61681114 19.38318886 1 22 C-0.32 21.67 -1.64 21.34 -3 21 C-1.5459375 19.9790625 -1.5459375 19.9790625 -0.0625 18.9375 C2.51585358 16.76850588 2.99560178 16.01397081 4.0625 12.625 C3.98630545 8.20571592 2.99455781 5.91240185 1 2 C0.67 1.34 0.34 0.68 0 0 Z " fill="#24282C" transform="translate(429,431)"/>
<path d="M0 0 C0.33 0 0.66 0 1 0 C1.33 6.27 1.66 12.54 2 19 C4.6296875 18.9690625 4.6296875 18.9690625 7.3125 18.9375 C10.61185544 18.89868405 12.85069107 18.95023036 16 20 C16 20.66 16 21.32 16 22 C13.52076199 22.02685095 11.0418116 22.04676547 8.5625 22.0625 C7.85544922 22.07087891 7.14839844 22.07925781 6.41992188 22.08789062 C4.61306441 22.09653588 2.80612397 22.05220011 1 22 C0 21 0 21 -0.11352539 18.95874023 C-0.10828857 18.08419189 -0.10305176 17.20964355 -0.09765625 16.30859375 C-0.09443359 15.36435547 -0.09121094 14.42011719 -0.08789062 13.44726562 C-0.07951172 12.45404297 -0.07113281 11.46082031 -0.0625 10.4375 C-0.05798828 9.44041016 -0.05347656 8.44332031 -0.04882812 7.41601562 C-0.03700007 4.94395151 -0.02051849 2.47200482 0 0 Z " fill="#1F242C" transform="translate(342,464)"/>
<path d="M0 0 C-1.30825111 2.85946313 -2.74875033 5.00447251 -4.875 7.3125 C-9.28352053 12.3446649 -12.10654657 17.53070078 -14 24 C-14.33 24 -14.66 24 -15 24 C-15.78429715 17.88248225 -13.34759228 13.88956199 -10 9 C-2.86818182 0 -2.86818182 0 0 0 Z " fill="#1E2126" transform="translate(869,474)"/>
<path d="M0 0 C0.33 0 0.66 0 1 0 C1.33 7.26 1.66 14.52 2 22 C1.34 22 0.68 22 0 22 C-0.33 22.99 -0.66 23.98 -1 25 C-1.66 23.68 -2.32 22.36 -3 21 C-2.34 20.67 -1.68 20.34 -1 20 C-1.00523682 19.42967041 -1.01047363 18.85934082 -1.01586914 18.27172852 C-1.03658221 15.70199677 -1.0496419 13.13228253 -1.0625 10.5625 C-1.07087891 9.66466797 -1.07925781 8.76683594 -1.08789062 7.84179688 C-1.09111328 6.98779297 -1.09433594 6.13378906 -1.09765625 5.25390625 C-1.10551147 4.06776733 -1.10551147 4.06776733 -1.11352539 2.85766602 C-1 1 -1 1 0 0 Z " fill="#272A2F" transform="translate(852,503)"/>
<path d="M0 0 C0.66 0 1.32 0 2 0 C2.0825 1.0725 2.165 2.145 2.25 3.25 C2.75250674 6.90368489 2.75250674 6.90368489 4.4375 9.3125 C8.30788483 11.86129001 12.46627562 12.34243692 17 13 C17 13.66 17 14.32 17 15 C10.90501137 15.42034404 7.87112047 15.07814737 3 11 C0.19252572 8.2861082 0.01276432 7.25528643 -0.1875 3.25 C-0.125625 2.1775 -0.06375 1.105 0 0 Z " fill="#20242A" transform="translate(408,440)"/>
<path d="M0 0 C3.24937281 2.80627652 4.77749847 5.64675359 5.18554688 9.96240234 C5.26824834 12.20794888 5.27286891 14.44062928 5.25 16.6875 C5.25773438 17.45900391 5.26546875 18.23050781 5.2734375 19.02539062 C5.25345092 24.74654908 5.25345092 24.74654908 3 27 C2.95101562 25.80503906 2.90203125 24.61007812 2.8515625 23.37890625 C2.31943461 11.568195 2.31943461 11.568195 0 0 Z " fill="#22252A" transform="translate(714,495)"/>
<path d="M0 0 C0.33 0.66 0.66 1.32 1 2 C-11.375 2.495 -11.375 2.495 -24 3 C-23.67 2.34 -23.34 1.68 -23 1 C-15.60359979 -1.11502414 -7.53518876 -1.75302703 0 0 Z " fill="#21242A" transform="translate(703,465)"/>
<path d="M0 0 C1.1530363 3.4591089 0.81067634 4.12522069 -0.375 7.4375 C-2.2527015 13.2420841 -2.69770729 18.93329801 -3 25 C-5.46771855 20.58771923 -5.63703162 16.96884666 -5 12 C-2.16666667 2.16666667 -2.16666667 2.16666667 0 0 Z " fill="#181B20" transform="translate(774,494)"/>
<path d="M0 0 C0.969375 0.886875 1.93875 1.77375 2.9375 2.6875 C6.34830302 5.62689122 9.89614291 7.76159429 13.88671875 9.82421875 C16.08657826 11.04817016 18.02026492 12.449282 20 14 C12.20527268 13.83054941 6.95637038 9.38871724 1.203125 4.4609375 C0 3 0 3 0 0 Z " fill="#202328" transform="translate(761,541)"/>
<path d="M0 0 C0.99940837 2.59965152 1.14668375 3.65754076 0.03125 6.26171875 C-7.51131452 18.21052632 -7.51131452 18.21052632 -12 23 C-12.66 23 -13.32 23 -14 23 C-12.44333705 19.56571266 -10.39715058 16.7509536 -8.125 13.75 C-4.85101227 9.3152348 -2.2704562 5.01392412 0 0 Z " fill="#488572" transform="translate(262,536)"/>
<path d="M0 0 C1.91635217 -0.05423638 3.83314925 -0.09289963 5.75 -0.125 C7.35101562 -0.15980469 7.35101562 -0.15980469 8.984375 -0.1953125 C11.92470106 -0.00487687 13.52361878 0.47329896 16 2 C15 3 15 3 11.40234375 3.09765625 C9.91403133 3.0909822 8.42573568 3.07902183 6.9375 3.0625 C6.17888672 3.05798828 5.42027344 3.05347656 4.63867188 3.04882812 C2.75908129 3.0370068 0.87953101 3.01907078 -1 3 C-0.67 2.01 -0.34 1.02 0 0 Z " fill="#25292E" transform="translate(558,430)"/>
<path d="M0 0 C2.74917214 1.37458607 3.01411102 2.96513017 4.25 5.75 C6.52310396 10.4861987 8.71912327 13.01334182 13 16 C12.34 16.66 11.68 17.32 11 18 C10.34 17.67 9.68 17.34 9 17 C9 16.34 9 15.68 9 15 C8.401875 14.731875 7.80375 14.46375 7.1875 14.1875 C3.67336581 12.27982715 2.32901918 10.81388954 0.8125 7.0625 C0 4 0 4 0 0 Z " fill="#202229" transform="translate(669,519)"/>
<path d="M0 0 C2.81638073 1.40819037 3.2830044 3.2650526 4.6875 6.0625 C7.5077994 11.3966959 10.81461563 15.67840489 15 20 C12 20 12 20 10.60546875 18.8203125 C0 6.14049587 0 6.14049587 0 0 Z " fill="#44826E" transform="translate(89,539)"/>
<path d="M0 0 C0.66 0 1.32 0 2 0 C2 0.66 2 1.32 2 2 C-0.58458866 4.2968097 -3.48525871 6.20134585 -6.3125 8.1875 C-7.09818359 8.75919922 -7.88386719 9.33089844 -8.69335938 9.91992188 C-9.45068359 10.45552734 -10.20800781 10.99113281 -10.98828125 11.54296875 C-11.68477783 12.03821045 -12.38127441 12.53345215 -13.09887695 13.04370117 C-13.72624756 13.35927979 -14.35361816 13.6748584 -15 14 C-15.99 13.67 -16.98 13.34 -18 13 C-17.49025635 12.64172119 -16.9805127 12.28344238 -16.45532227 11.91430664 C-14.15699741 10.29805514 -11.85973648 8.68029803 -9.5625 7.0625 C-8.35883789 6.21655273 -8.35883789 6.21655273 -7.13085938 5.35351562 C-6.36708984 4.81533203 -5.60332031 4.27714844 -4.81640625 3.72265625 C-3.75595093 2.97640991 -3.75595093 2.97640991 -2.67407227 2.21508789 C-1.05303063 1.10532955 -1.05303063 1.10532955 0 0 Z " fill="#478572" transform="translate(230,573)"/>
<path d="M0 0 C2.92764905 1.35973034 5.34414908 2.94026223 7.875 4.9375 C11.09423775 7.40317086 14.28700721 9.32915324 18 11 C18 11.33 18 11.66 18 12 C13.27026563 12.51691086 11.05563667 11.04841596 7.3125 8.25 C6.35988281 7.55390625 5.40726563 6.8578125 4.42578125 6.140625 C2.15287428 4.13490355 1.07440383 2.78968011 0 0 Z " fill="#212428" transform="translate(863,543)"/>
<path d="M0 0 C4.70006379 0.52222931 7.83584119 1.77200798 11.8125 4.3125 C13.24529297 5.20388672 13.24529297 5.20388672 14.70703125 6.11328125 C17.123697 8.10178135 17.69662229 8.94599773 18 12 C17.53851562 11.62488281 17.07703125 11.24976563 16.6015625 10.86328125 C11.39067452 6.7748968 6.00182163 3.77953215 0 1 C0 0.67 0 0.34 0 0 Z " fill="#1E2227" transform="translate(810,468)"/>
<path d="M0 0 C2.74917214 1.37458607 3.01411102 2.96513017 4.25 5.75 C6.52310396 10.4861987 8.71912327 13.01334182 13 16 C12.67 16.66 12.34 17.32 12 18 C5.96208645 14.83728338 2.79169837 10.17737511 0 4 C0 2.68 0 1.36 0 0 Z " fill="#1D2025" transform="translate(873,519)"/>
<path d="M0 0 C0.33 0 0.66 0 1 0 C3.00775194 15.48837209 3.00775194 15.48837209 0 20 C-0.99258638 15.8721011 -1.13386843 11.9891109 -1.125 7.75 C-1.12757813 6.50734375 -1.13015625 5.2646875 -1.1328125 3.984375 C-1 1 -1 1 0 0 Z " fill="#20242A" transform="translate(574,433)"/>
<path d="M0 0 C1.485 0.99 1.485 0.99 3 2 C3.29296875 5.2578125 3.29296875 5.2578125 3.1875 9.125 C3.16042969 10.40632812 3.13335938 11.68765625 3.10546875 13.0078125 C3.07066406 13.99523437 3.03585937 14.98265625 3 16 C2.34 16.33 1.68 16.66 1 17 C-0.22517308 11.33357449 -0.09228867 5.76291482 0 0 Z " fill="#25282D" transform="translate(632,510)"/>
<path d="M0 0 C5.94 0 11.88 0 18 0 C18 0.33 18 0.66 18 1 C13.05 1.33 8.1 1.66 3 2 C3 3.98 3 5.96 3 8 C2.01 8 1.02 8 0 8 C0 5.36 0 2.72 0 0 Z " fill="#1F2329" transform="translate(342,504)"/>
<path d="M0 0 C4.83880795 2.04282297 6.83742643 5.33339388 9 10 C9.63926416 12.7330859 9.84893641 15.18014632 10 18 C8.27107418 15.40661127 6.92458856 12.91706938 5.5625 10.125 C3.84554181 6.65044556 2.07601052 3.27791135 0 0 Z " fill="#1B1E23" transform="translate(829,481)"/>
<path d="M0 0 C-6.25957488 2.91116258 -12.50010403 5.66984861 -19 8 C-18 5 -18 5 -15.6015625 3.6484375 C-14.61929688 3.22820312 -13.63703125 2.80796875 -12.625 2.375 C-11.15933594 1.73691406 -11.15933594 1.73691406 -9.6640625 1.0859375 C-5.8845243 -0.45469537 -3.91147374 -1.21390564 0 0 Z " fill="#488671" transform="translate(107,409)"/>
<path d="M0 0 C5.72280376 0.23358383 8.46382667 1.72478561 12.71484375 5.52734375 C14 7 14 7 14 9 C10.41844487 7.34697456 7.27671443 5.18447628 4 3 C2.6808418 2.30570621 1.35350594 1.62469505 0 1 C0 0.67 0 0.34 0 0 Z " fill="#1F2328" transform="translate(905,467)"/>
<path d="M0 0 C-1.96715805 1.96715805 -3.32968098 2.72616213 -5.8125 3.875 C-9.26022932 5.54548452 -12.10281003 7.46495878 -15 10 C-14.0943894 6.03795362 -12.47351586 4.35342382 -9.1875 2.1875 C-6.01230998 0.33675172 -3.74476649 -0.58511976 0 0 Z " fill="#1F2228" transform="translate(591,467)"/>
<path d="M0 0 C4.62 0 9.24 0 14 0 C10.77208445 2.1519437 9.71599191 2.20086443 6 2 C5.67 2.66 5.34 3.32 5 4 C2.525 3.01 2.525 3.01 0 2 C0 1.34 0 0.68 0 0 Z " fill="#20252B" transform="translate(322,553)"/>
<path d="M0 0 C2.29141286 -0.05384521 4.58318188 -0.09272087 6.875 -0.125 C8.78925781 -0.15980469 8.78925781 -0.15980469 10.7421875 -0.1953125 C14 0 14 0 16 2 C13.7089095 2.19441368 11.41709663 2.38033135 9.125 2.5625 C7.21074219 2.71912109 7.21074219 2.71912109 5.2578125 2.87890625 C2 3 2 3 0 2 C0 1.34 0 0.68 0 0 Z " fill="#191C22" transform="translate(520,553)"/>
<path d="M0 0 C0.671875 1.67578125 0.671875 1.67578125 1 4 C-0.109375 6.54296875 -0.109375 6.54296875 -1.75 9.1875 C-2.54664063 10.50814453 -2.54664063 10.50814453 -3.359375 11.85546875 C-5 14 -5 14 -8 15 C-6.38102741 11.69918209 -4.64075691 8.47442567 -2.875 5.25 C-2.33617187 4.26515625 -1.79734375 3.2803125 -1.2421875 2.265625 C-0.83226562 1.51796875 -0.42234375 0.7703125 0 0 Z " fill="#1E2126" transform="translate(735,528)"/>
<path d="M0 0 C1.485 0.99 1.485 0.99 3 2 C3.29296875 5.2578125 3.29296875 5.2578125 3.1875 9.125 C3.16042969 10.40632813 3.13335938 11.68765625 3.10546875 13.0078125 C3.07066406 13.99523437 3.03585937 14.98265625 3 16 C2.34 16 1.68 16 1 16 C0.08342019 10.61509359 -0.11138159 5.45769811 0 0 Z " fill="#1F2227" transform="translate(940,472)"/>
<path d="M0 0 C0.66 0.33 1.32 0.66 2 1 C-5.08235294 7.09411765 -5.08235294 7.09411765 -9 9 C-9.99 8.67 -10.98 8.34 -12 8 C-8.04 5.36 -4.08 2.72 0 0 Z " fill="#498774" transform="translate(209,588)"/>
<path d="M0 0 C1.25180279 4.21919103 0.67252421 7.96088565 0.0625 12.25 C-0.03740234 12.99507813 -0.13730469 13.74015625 -0.24023438 14.5078125 C-0.48680156 16.33945442 -0.74250391 18.16986251 -1 20 C-1.33 20 -1.66 20 -2 20 C-2.05392397 17.22890693 -2.09363455 14.45886182 -2.125 11.6875 C-2.14175781 10.90181641 -2.15851562 10.11613281 -2.17578125 9.30664062 C-2.18544922 8.1706543 -2.18544922 8.1706543 -2.1953125 7.01171875 C-2.20578613 6.31522217 -2.21625977 5.61872559 -2.22705078 4.90112305 C-2 3 -2 3 0 0 Z " fill="#131519" transform="translate(650,497)"/>
<path d="M0 0 C-9.1 7 -9.1 7 -13 7 C-5.875 -0.31756757 -5.875 -0.31756757 0 0 Z " fill="#1A1E24" transform="translate(490,467)"/>
<path d="M0 0 C3.62276315 1.3255581 6.63505348 2.94346955 9.8125 5.125 C10.60269531 5.66382813 11.39289063 6.20265625 12.20703125 6.7578125 C12.79871094 7.16773438 13.39039063 7.57765625 14 8 C13.01 8.33 12.02 8.66 11 9 C8.5546875 7.63671875 8.5546875 7.63671875 5.875 5.6875 C4.98554688 5.05199219 4.09609375 4.41648437 3.1796875 3.76171875 C1 2 1 2 0 0 Z " fill="#488671" transform="translate(133,584)"/>
<path d="M0 0 C1.13199353 0.9080162 2.25532363 1.82683826 3.375 2.75 C4.00148438 3.26046875 4.62796875 3.7709375 5.2734375 4.296875 C7.12622366 6.12451022 8.12320552 7.55268354 9 10 C8.67 10.99 8.34 11.98 8 13 C7.16094435 11.87926138 6.32892169 10.75325453 5.5 9.625 C4.80390625 8.68527344 4.80390625 8.68527344 4.09375 7.7265625 C3 6 3 6 3 4 C2.34 4 1.68 4 1 4 C0.67 2.68 0.34 1.36 0 0 Z " fill="#1E2127" transform="translate(810,488)"/>
<path d="M0 0 C2.29160319 -0.02692484 4.58329546 -0.04636124 6.875 -0.0625 C8.15117187 -0.07410156 9.42734375 -0.08570313 10.7421875 -0.09765625 C14 0 14 0 16 1 C16 1.66 16 2.32 16 3 C10.72 2.34 5.44 1.68 0 1 C0 0.67 0 0.34 0 0 Z " fill="#478671" transform="translate(192,398)"/>
<path d="M0 0 C2.36574234 3.5486135 2.10865265 4.5764525 1.625 8.6875 C1.51414062 9.68136719 1.40328125 10.67523438 1.2890625 11.69921875 C1.19367187 12.45847656 1.09828125 13.21773438 1 14 C-0.75328507 10.97159851 -1.25093193 8.80125633 -1.1875 5.3125 C-1.18105469 4.52488281 -1.17460938 3.73726563 -1.16796875 2.92578125 C-1 1 -1 1 0 0 Z " fill="#161A1F" transform="translate(633,497)"/>
<path d="M0 0 C4.77609498 1.64178265 8.79382904 4.26546702 13 7 C11.296875 7.67578125 11.296875 7.67578125 9 8 C6.640625 6.85546875 6.640625 6.85546875 4.25 5.1875 C3.45078125 4.64480469 2.6515625 4.10210938 1.828125 3.54296875 C1.22484375 3.03378906 0.6215625 2.52460937 0 2 C0 1.34 0 0.68 0 0 Z " fill="#478571" transform="translate(150,595)"/>
<path d="M0 0 C0.33 0 0.66 0 1 0 C1 1.65 1 3.3 1 5 C0.401875 5.12375 -0.19625 5.2475 -0.8125 5.375 C-3.26231348 5.95475985 -3.26231348 5.95475985 -6 8 C-8.1875 7.625 -8.1875 7.625 -10 7 C-9.36191406 6.57847656 -8.72382812 6.15695312 -8.06640625 5.72265625 C-7.24011719 5.17480469 -6.41382813 4.62695312 -5.5625 4.0625 C-4.73878906 3.51722656 -3.91507813 2.97195313 -3.06640625 2.41015625 C-1.10014075 1.16197019 -1.10014075 1.16197019 0 0 Z " fill="#22252A" transform="translate(917,547)"/>
<path d="M0 0 C0.33 0.99 0.66 1.98 1 3 C-1.44172459 6.25563278 -4.04449934 9.20005201 -7 12 C-6.67566492 6.64847115 -3.50295176 3.71719957 0 0 Z " fill="#1E2228" transform="translate(881,488)"/>
<path d="M0 0 C0.66 0 1.32 0 2 0 C4.20808081 5.19548425 3.93402724 8.58264203 3 14 C2.67 14 2.34 14 2 14 C1.34 9.38 0.68 4.76 0 0 Z " fill="#1E2227" transform="translate(529,482)"/>
<path d="M0 0 C-1.63369858 3.26739717 -4.70894675 3.71704704 -8 5 C-9.32276056 5.37308631 -10.65232077 5.73046415 -12 6 C-12 5.34 -12 4.68 -12 4 C-4.71428571 -0.57142857 -4.71428571 -0.57142857 0 0 Z " fill="#202429" transform="translate(883,467)"/>
<path d="M0 0 C2.04219706 1.69179328 2.91793306 2.63727666 3.51171875 5.26171875 C3.56972656 6.06222656 3.62773438 6.86273438 3.6875 7.6875 C3.75324219 8.49574219 3.81898438 9.30398438 3.88671875 10.13671875 C3.92410156 10.75160156 3.96148438 11.36648438 4 12 C3.67 11.34 3.34 10.68 3 10 C2.34 9.67 1.68 9.34 1 9 C0.5859375 6.93359375 0.5859375 6.93359375 0.375 4.4375 C0.30023438 3.61121094 0.22546875 2.78492188 0.1484375 1.93359375 C0.09945313 1.29550781 0.05046875 0.65742188 0 0 Z " fill="#1F2227" transform="translate(510,492)"/>
<path d="M0 0 C4.84455959 2.29015544 4.84455959 2.29015544 7 4 C7.9375 7.25 7.9375 7.25 8 10 C7.484375 9.236875 6.96875 8.47375 6.4375 7.6875 C3.44152356 4.38424393 1.14287486 3.51374274 -3 2 C-2.01 1.34 -1.02 0.68 0 0 Z " fill="#272C31" transform="translate(502,484)"/>
<path d="M0 0 C5.40049736 0.31767632 7.52337065 3.19996327 11 7 C10.67 7.99 10.34 8.98 10 10 C9.46375 9.2575 8.9275 8.515 8.375 7.75 C5.85015128 4.82649095 3.24183838 3.06298806 0 1 C0 0.67 0 0.34 0 0 Z " fill="#191C21" transform="translate(516,469)"/>
<path d="M0 0 C0.66 0 1.32 0 2 0 C1.64947365 3.15473719 1.13480924 4.8233534 -0.8125 7.375 C-3 9 -3 9 -5.25 8.75 C-6.11625 8.37875 -6.11625 8.37875 -7 8 C-5.47005208 6.79557292 -3.94010417 5.59114583 -2.41015625 4.38671875 C-0.72844923 2.94316909 -0.72844923 2.94316909 0 0 Z " fill="#1E2227" transform="translate(433,444)"/>
<path d="M0 0 C3.79379058 1.49041773 5.68343758 3.69062512 8 7 C8 7.66 8 8.32 8 9 C6 9 6 9 4.4921875 7.5390625 C3.95851563 6.90742188 3.42484375 6.27578125 2.875 5.625 C2.06675781 4.68527344 2.06675781 4.68527344 1.2421875 3.7265625 C0 2 0 2 0 0 Z " fill="#1E2127" transform="translate(910,487)"/>
<path d="M0 0 C0.556875 0.268125 1.11375 0.53625 1.6875 0.8125 C0.82125 1.0909375 0.82125 1.0909375 -0.0625 1.375 C-3.41677843 3.51801122 -4.49157996 6.30072563 -6.3125 9.8125 C-6.6425 9.8125 -6.9725 9.8125 -7.3125 9.8125 C-7.625 7.625 -7.625 7.625 -7.3125 4.8125 C-3.33459945 -0.27037293 -3.33459945 -0.27037293 0 0 Z " fill="#171B1F" transform="translate(416.3125,429.1875)"/>
<path d="M0 0 C0.99 0.33 1.98 0.66 3 1 C0.14723863 3.93200474 -2.65079784 6.64315404 -6 9 C-5.52797514 4.75177626 -3.03344482 2.80010291 0 0 Z " fill="#1C2025" transform="translate(765,475)"/>
<path d="M0 0 C-2.85478326 1.90318884 -4.41941308 2.4619099 -7.6875 3.125 C-8.49574219 3.29257812 -9.30398437 3.46015625 -10.13671875 3.6328125 C-10.75160156 3.75398438 -11.36648437 3.87515625 -12 4 C-11.67 3.01 -11.34 2.02 -11 1 C-7.50970582 -0.47666292 -3.72563614 -0.07164685 0 0 Z " fill="#478773" transform="translate(130,402)"/>
<path d="M0 0 C3.73386136 1.24462045 4.64805848 2.91307675 7 6 C7.98230498 7.0173873 8.97469597 8.02596117 10 9 C6.71245489 8.42110619 5.06327505 7.45171589 2.75 5.0625 C2.22921875 4.53785156 1.7084375 4.01320313 1.171875 3.47265625 C0 2 0 2 0 0 Z " fill="#1A1C22" transform="translate(657,540)"/>
<path d="M0 0 C0.33 0 0.66 0 1 0 C1.16682272 4.92127034 1.24828052 8.50343896 -1 13 C-1.33 13 -1.66 13 -2 13 C-2.23509196 8.18061476 -1.45184478 4.53701494 0 0 Z " fill="#468370" transform="translate(266,520)"/>
<path d="M0 0 C0.66 0.33 1.32 0.66 2 1 C-0.31 3.64 -2.62 6.28 -5 9 C-5.33 7.68 -5.66 6.36 -6 5 C-4.02 3.35 -2.04 1.7 0 0 Z " fill="#25282E" transform="translate(781,487)"/>
<path d="M0 0 C5.01113235 1.4317521 6.94469549 3.98445693 10 8 C6.41726669 6.34643078 3.19026533 4.32019297 0 2 C0 1.34 0 0.68 0 0 Z " fill="#1D2126" transform="translate(703,485)"/>
<path d="M0 0 C0.33 0 0.66 0 1 0 C0.67 4.29 0.34 8.58 0 13 C-0.33 13 -0.66 13 -1 13 C-1.22151549 11.20991533 -1.42682213 9.41781838 -1.625 7.625 C-1.74101563 6.62726563 -1.85703125 5.62953125 -1.9765625 4.6015625 C-1.98429688 3.74304688 -1.99203125 2.88453125 -2 2 C-1.34 1.34 -0.68 0.68 0 0 Z " fill="#1A1D23" transform="translate(554,433)"/>
<path d="M0 0 C1.08667969 0.29197266 1.08667969 0.29197266 2.1953125 0.58984375 C2.74960937 0.74582031 3.30390625 0.90179688 3.875 1.0625 C3.545 1.7225 3.215 2.3825 2.875 3.0625 C-0.095 2.7325 -3.065 2.4025 -6.125 2.0625 C-6.125 1.4025 -6.125 0.7425 -6.125 0.0625 C-3.57797384 -1.21101308 -2.6967055 -0.73941925 0 0 Z " fill="#21262C" transform="translate(425.125,427.9375)"/>
<path d="M0 0 C0.33 0.66 0.66 1.32 1 2 C0.04956626 3.33897583 -0.91059147 4.67105427 -1.875 6 C-2.40867188 6.7425 -2.94234375 7.485 -3.4921875 8.25 C-3.98976562 8.8275 -4.48734375 9.405 -5 10 C-5.66 10 -6.32 10 -7 10 C-5.33248852 6.05860922 -2.77289351 3.2107188 0 0 Z " fill="#437F6C" transform="translate(255,549)"/>
<path d="M0 0 C3.27286682 2.7819368 4.96427697 6.27954067 7 10 C3.17398693 8.54875366 1.77670876 6.64225296 0 3 C0 2.01 0 1.02 0 0 Z " fill="#1B1E24" transform="translate(856,532)"/>
<path d="M0 0 C2.09350689 3.4019487 2.17942163 6.05272412 2 10 C1.01 10.495 1.01 10.495 0 11 C-1.125 3.375 -1.125 3.375 0 0 Z " fill="#23272C" transform="translate(632,487)"/>
<path d="M0 0 C0.99 0.33 1.98 0.66 3 1 C-0.75 4 -0.75 4 -3 4 C-3.66 5.32 -4.32 6.64 -5 8 C-5.33 7.01 -5.66 6.02 -6 5 C-1.60546875 0.99609375 -1.60546875 0.99609375 0 0 Z " fill="#202227" transform="translate(584,485)"/>
<path d="M0 0 C-1.39332574 3.36720387 -2.9789286 4.9859524 -6 7 C-6.66 6.67 -7.32 6.34 -8 6 C-7.0479279 4.99403703 -6.08812654 3.99538437 -5.125 3 C-4.59132812 2.443125 -4.05765625 1.88625 -3.5078125 1.3125 C-2 0 -2 0 0 0 Z " fill="#498672" transform="translate(247,560)"/>
<path d="M0 0 C2.27618181 2.1677922 4.32954824 4.32727719 6 7 C5.67 7.99 5.34 8.98 5 10 C4.15801693 8.90241493 3.32669329 7.79664683 2.5 6.6875 C2.0359375 6.07261719 1.571875 5.45773437 1.09375 4.82421875 C0 3 0 3 0 0 Z " fill="#1B1C22" transform="translate(754,531)"/>
<path d="M0 0 C0.66 0.33 1.32 0.66 2 1 C0.86280581 4.41158256 -0.04342944 5.11854601 -3 7 C-3.66 7 -4.32 7 -5 7 C-3.70700306 4.11562221 -2.34058637 2.12780579 0 0 Z " fill="#212328" transform="translate(815,528)"/>
<path d="M0 0 C1.98 0 3.96 0 6 0 C6 0.99 6 1.98 6 3 C3.69 3 1.38 3 -1 3 C-0.67 2.01 -0.34 1.02 0 0 Z " fill="#292C33" transform="translate(514,553)"/>
<path d="M0 0 C0.66 0.66 1.32 1.32 2 2 C-4.75 6 -4.75 6 -7 6 C-7 5.34 -7 4.68 -7 4 C-4.69 2.68 -2.38 1.36 0 0 Z " fill="#22262C" transform="translate(913,532)"/>
<path d="M0 0 C-6.75 4 -6.75 4 -9 4 C-8 1 -8 1 -6.1875 -0.25 C-3.66056586 -1.11637742 -2.47778006 -0.88492145 0 0 Z " fill="#1B1F24" transform="translate(778,470)"/>
<path d="M0 0 C0.99 0.33 1.98 0.66 3 1 C-2.75 6 -2.75 6 -5 6 C-3.86525052 2.59575156 -3.03188696 1.78346291 0 0 Z " fill="#202329" transform="translate(710,531)"/>
<path d="M0 0 C1.98 0 3.96 0 6 0 C6 0.33 6 0.66 6 1 C4.02 1 2.04 1 0 1 C0 0.67 0 0.34 0 0 Z " fill="#4C5156" transform="translate(453,464)"/>
<path d="M0 0 C1.65 0 3.3 0 5 0 C5 0.33 5 0.66 5 1 C3.35 1 1.7 1 0 1 C0 0.67 0 0.34 0 0 Z " fill="#464D54" transform="translate(427,464)"/>
<path d="M0 0 C4 1 4 1 4 1 Z " fill="#4B5056" transform="translate(468,464)"/>
<path d="" fill="#484A50" transform="translate(0,0)"/>
<path d="M0 0 C3 1 3 1 3 1 Z " fill="#45494F" transform="translate(899,486)"/>
<path d="" fill="#4C5055" transform="translate(0,0)"/>
<path d="M0 0 C3 1 3 1 3 1 Z " fill="#4E5458" transform="translate(805,464)"/>
<path d="M0 0 C3 1 3 1 3 1 Z " fill="#4C4E54" transform="translate(509,464)"/>
<path d="M0 0 C2 1 2 1 2 1 Z " fill="#4B4F54" transform="translate(693,559)"/>
<path d="M0 0 C2 1 2 1 2 1 Z " fill="#4E5256" transform="translate(921,557)"/>
<path d="" fill="#4D5155" transform="translate(0,0)"/>
<path d="" fill="#4C5055" transform="translate(0,0)"/>
<path d="M0 0 C2 1 2 1 2 1 Z " fill="#454950" transform="translate(896,536)"/>
<path d="M0 0 C2 1 2 1 2 1 Z " fill="#494D52" transform="translate(795,536)"/>
<path d="M0 0 C2 1 2 1 2 1 Z " fill="#494D53" transform="translate(792,536)"/>
<path d="M0 0 C2 1 2 1 2 1 Z " fill="#444A50" transform="translate(694,536)"/>
<path d="" fill="#4C5258" transform="translate(0,0)"/>
<path d="" fill="#629F8D" transform="translate(0,0)"/>
<path d="M0 0 C2 1 2 1 2 1 Z " fill="#494E52" transform="translate(848,520)"/>
<path d="" fill="#494C52" transform="translate(0,0)"/>
<path d="" fill="#454B50" transform="translate(0,0)"/>
<path d="" fill="#474A51" transform="translate(0,0)"/>
<path d="" fill="#464B52" transform="translate(0,0)"/>
<path d="" fill="#494F52" transform="translate(0,0)"/>
<path d="" fill="#464B51" transform="translate(0,0)"/>
<path d="" fill="#494E54" transform="translate(0,0)"/>
<path d="" fill="#474B51" transform="translate(0,0)"/>
<path d="" fill="#484C53" transform="translate(0,0)"/>
<path d="" fill="#4A5054" transform="translate(0,0)"/>
<path d="" fill="#484B52" transform="translate(0,0)"/>
<path d="M0 0 C2 1 2 1 2 1 Z " fill="#484E54" transform="translate(809,493)"/>
<path d="" fill="#494D52" transform="translate(0,0)"/>
<path d="M0 0 C2 1 2 1 2 1 Z " fill="#484C55" transform="translate(684,487)"/>
<path d="M0 0 C2 1 2 1 2 1 Z " fill="#484B4F" transform="translate(896,486)"/>
<path d="M0 0 C2 1 2 1 2 1 Z " fill="#43494E" transform="translate(596,486)"/>
<path d="" fill="#495054" transform="translate(0,0)"/>
<path d="" fill="#474D54" transform="translate(0,0)"/>
<path d="" fill="#4A4E53" transform="translate(0,0)"/>
<path d="" fill="#505458" transform="translate(0,0)"/>
<path d="" fill="#4F555A" transform="translate(0,0)"/>
<path d="M0 0 C2 1 2 1 2 1 Z " fill="#4E525A" transform="translate(880,464)"/>
<path d="M0 0 C2 1 2 1 2 1 Z " fill="#4B5257" transform="translate(465,464)"/>
<path d="M0 0 C2 1 2 1 2 1 Z " fill="#495055" transform="translate(422,464)"/>
<path d="" fill="#717072" transform="translate(0,0)"/>
<path d="" fill="#62A08C" transform="translate(0,0)"/>
<path d="" fill="#639E8C" transform="translate(0,0)"/>
<path d="" fill="#62A08D" transform="translate(0,0)"/>
<path d="" fill="#609B8A" transform="translate(0,0)"/>
<path d="" fill="#4D5258" transform="translate(0,0)"/>
<path d="" fill="#4B5055" transform="translate(0,0)"/>
<path d="" fill="#484C50" transform="translate(0,0)"/>
<path d="" fill="#4D5157" transform="translate(0,0)"/>
<path d="" fill="#4B4E54" transform="translate(0,0)"/>
<path d="" fill="#4A5055" transform="translate(0,0)"/>
<path d="" fill="#494F53" transform="translate(0,0)"/>
<path d="" fill="#4E525A" transform="translate(0,0)"/>
<path d="" fill="#4D4F55" transform="translate(0,0)"/>
<path d="" fill="#505558" transform="translate(0,0)"/>
<path d="" fill="#4D5357" transform="translate(0,0)"/>
<path d="" fill="#50565A" transform="translate(0,0)"/>
<path d="" fill="#4D5057" transform="translate(0,0)"/>
<path d="" fill="#4E5257" transform="translate(0,0)"/>
<path d="" fill="#4F5558" transform="translate(0,0)"/>
<path d="" fill="#50555D" transform="translate(0,0)"/>
<path d="" fill="#555A5F" transform="translate(0,0)"/>
<path d="" fill="#586369" transform="translate(0,0)"/>
<path d="" fill="#50525A" transform="translate(0,0)"/>
<path d="" fill="#50565A" transform="translate(0,0)"/>
<path d="" fill="#525459" transform="translate(0,0)"/>
<path d="" fill="#51545A" transform="translate(0,0)"/>
<path d="" fill="#53555A" transform="translate(0,0)"/>
<path d="" fill="#53575C" transform="translate(0,0)"/>
<path d="" fill="#53595B" transform="translate(0,0)"/>
<path d="" fill="#50565D" transform="translate(0,0)"/>
<path d="" fill="#50555C" transform="translate(0,0)"/>
<path d="" fill="#5E9D8A" transform="translate(0,0)"/>
<path d="" fill="#525559" transform="translate(0,0)"/>
<path d="" fill="#4B5054" transform="translate(0,0)"/>
<path d="" fill="#4B5058" transform="translate(0,0)"/>
<path d="" fill="#4F5356" transform="translate(0,0)"/>
<path d="" fill="#4F5659" transform="translate(0,0)"/>
<path d="" fill="#4D5154" transform="translate(0,0)"/>
<path d="" fill="#4F5557" transform="translate(0,0)"/>
<path d="" fill="#5F9C8B" transform="translate(0,0)"/>
<path d="" fill="#51545A" transform="translate(0,0)"/>
<path d="" fill="#515759" transform="translate(0,0)"/>
<path d="" fill="#4E5253" transform="translate(0,0)"/>
<path d="" fill="#4E5358" transform="translate(0,0)"/>
<path d="" fill="#525A60" transform="translate(0,0)"/>
<path d="" fill="#4F5558" transform="translate(0,0)"/>
<path d="" fill="#53595B" transform="translate(0,0)"/>
<path d="" fill="#4E5058" transform="translate(0,0)"/>
<path d="" fill="#5F9C8C" transform="translate(0,0)"/>
<path d="" fill="#4C5258" transform="translate(0,0)"/>
<path d="" fill="#639B8C" transform="translate(0,0)"/>
<path d="" fill="#4A4E54" transform="translate(0,0)"/>
<path d="" fill="#609C89" transform="translate(0,0)"/>
<path d="" fill="#495053" transform="translate(0,0)"/>
<path d="" fill="#4C5155" transform="translate(0,0)"/>
<path d="" fill="#4C4F57" transform="translate(0,0)"/>
<path d="" fill="#4D5255" transform="translate(0,0)"/>
<path d="" fill="#4A4E56" transform="translate(0,0)"/>
<path d="" fill="#494F52" transform="translate(0,0)"/>
<path d="" fill="#4E5054" transform="translate(0,0)"/>
<path d="" fill="#484E54" transform="translate(0,0)"/>
<path d="" fill="#4D4E55" transform="translate(0,0)"/>
<path d="" fill="#4A4F58" transform="translate(0,0)"/>
<path d="" fill="#4D5056" transform="translate(0,0)"/>
<path d="" fill="#484B50" transform="translate(0,0)"/>
<path d="" fill="#454B4F" transform="translate(0,0)"/>
<path d="" fill="#4E5155" transform="translate(0,0)"/>
<path d="" fill="#484D55" transform="translate(0,0)"/>
<path d="" fill="#4C5054" transform="translate(0,0)"/>
<path d="" fill="#4B4F55" transform="translate(0,0)"/>
<path d="" fill="#4A4E53" transform="translate(0,0)"/>
<path d="" fill="#4B4F55" transform="translate(0,0)"/>
<path d="" fill="#4A4F54" transform="translate(0,0)"/>
<path d="" fill="#474D52" transform="translate(0,0)"/>
<path d="" fill="#4E5056" transform="translate(0,0)"/>
<path d="" fill="#484A52" transform="translate(0,0)"/>
<path d="" fill="#4C4D55" transform="translate(0,0)"/>
<path d="" fill="#609E8C" transform="translate(0,0)"/>
<path d="" fill="#474D50" transform="translate(0,0)"/>
<path d="" fill="#494E54" transform="translate(0,0)"/>
<path d="" fill="#4B4D51" transform="translate(0,0)"/>
<path d="" fill="#4A4F53" transform="translate(0,0)"/>
<path d="" fill="#474B51" transform="translate(0,0)"/>
<path d="" fill="#494B52" transform="translate(0,0)"/>
<path d="" fill="#474E54" transform="translate(0,0)"/>
<path d="" fill="#609F8B" transform="translate(0,0)"/>
<path d="" fill="#619D8C" transform="translate(0,0)"/>
<path d="" fill="#484E53" transform="translate(0,0)"/>
<path d="" fill="#4A4F51" transform="translate(0,0)"/>
<path d="" fill="#4C4F55" transform="translate(0,0)"/>
<path d="" fill="#474D54" transform="translate(0,0)"/>
<path d="" fill="#474D51" transform="translate(0,0)"/>
<path d="" fill="#494C54" transform="translate(0,0)"/>
<path d="" fill="#4A4E52" transform="translate(0,0)"/>
<path d="" fill="#474A53" transform="translate(0,0)"/>
<path d="" fill="#494F52" transform="translate(0,0)"/>
<path d="" fill="#62A08E" transform="translate(0,0)"/>
<path d="" fill="#494D54" transform="translate(0,0)"/>
<path d="" fill="#609F8E" transform="translate(0,0)"/>
<path d="" fill="#484D51" transform="translate(0,0)"/>
<path d="" fill="#484952" transform="translate(0,0)"/>
<path d="" fill="#474C52" transform="translate(0,0)"/>
<path d="" fill="#4C5057" transform="translate(0,0)"/>
<path d="" fill="#474C50" transform="translate(0,0)"/>
<path d="" fill="#4A4C55" transform="translate(0,0)"/>
<path d="" fill="#4D5256" transform="translate(0,0)"/>
<path d="" fill="#474C53" transform="translate(0,0)"/>
<path d="" fill="#464E55" transform="translate(0,0)"/>
<path d="" fill="#474C52" transform="translate(0,0)"/>
<path d="" fill="#484D50" transform="translate(0,0)"/>
<path d="" fill="#454B50" transform="translate(0,0)"/>
<path d="" fill="#454B51" transform="translate(0,0)"/>
<path d="" fill="#484B51" transform="translate(0,0)"/>
<path d="" fill="#474D54" transform="translate(0,0)"/>
<path d="" fill="#494C52" transform="translate(0,0)"/>
<path d="" fill="#4A4B54" transform="translate(0,0)"/>
<path d="" fill="#4D4D54" transform="translate(0,0)"/>
<path d="" fill="#474C51" transform="translate(0,0)"/>
<path d="" fill="#4B4F54" transform="translate(0,0)"/>
<path d="" fill="#484952" transform="translate(0,0)"/>
<path d="" fill="#464D51" transform="translate(0,0)"/>
<path d="" fill="#484C4F" transform="translate(0,0)"/>
<path d="" fill="#464A4F" transform="translate(0,0)"/>
<path d="" fill="#4A4E55" transform="translate(0,0)"/>
<path d="" fill="#4A4B52" transform="translate(0,0)"/>
<path d="" fill="#444A52" transform="translate(0,0)"/>
<path d="" fill="#494F54" transform="translate(0,0)"/>
<path d="" fill="#4C5158" transform="translate(0,0)"/>
<path d="" fill="#444A4F" transform="translate(0,0)"/>
<path d="" fill="#494D53" transform="translate(0,0)"/>
<path d="" fill="#484D54" transform="translate(0,0)"/>
<path d="" fill="#484B53" transform="translate(0,0)"/>
<path d="" fill="#434A50" transform="translate(0,0)"/>
<path d="" fill="#474D53" transform="translate(0,0)"/>
<path d="" fill="#474951" transform="translate(0,0)"/>
<path d="" fill="#484D52" transform="translate(0,0)"/>
<path d="" fill="#4B4F53" transform="translate(0,0)"/>
<path d="" fill="#484A50" transform="translate(0,0)"/>
<path d="" fill="#4B4D54" transform="translate(0,0)"/>
<path d="" fill="#484D53" transform="translate(0,0)"/>
<path d="" fill="#4A4C4F" transform="translate(0,0)"/>
<path d="" fill="#485054" transform="translate(0,0)"/>
<path d="" fill="#4E5256" transform="translate(0,0)"/>
<path d="" fill="#4D5154" transform="translate(0,0)"/>
<path d="" fill="#474C52" transform="translate(0,0)"/>
<path d="" fill="#5EA08D" transform="translate(0,0)"/>
<path d="" fill="#4C5157" transform="translate(0,0)"/>
<path d="" fill="#4C5055" transform="translate(0,0)"/>
<path d="" fill="#4C5357" transform="translate(0,0)"/>
<path d="" fill="#484B53" transform="translate(0,0)"/>
<path d="" fill="#4A4F54" transform="translate(0,0)"/>
<path d="" fill="#495055" transform="translate(0,0)"/>
<path d="" fill="#4D4F53" transform="translate(0,0)"/>
<path d="" fill="#4D5156" transform="translate(0,0)"/>
<path d="" fill="#4D5256" transform="translate(0,0)"/>
<path d="" fill="#4C5055" transform="translate(0,0)"/>
<path d="" fill="#4A4D54" transform="translate(0,0)"/>
<path d="" fill="#4D5257" transform="translate(0,0)"/>
<path d="" fill="#4C5057" transform="translate(0,0)"/>
<path d="" fill="#4A5056" transform="translate(0,0)"/>
<path d="" fill="#4D5456" transform="translate(0,0)"/>
<path d="" fill="#484F55" transform="translate(0,0)"/>
<path d="" fill="#4E5459" transform="translate(0,0)"/>
<path d="" fill="#4C5156" transform="translate(0,0)"/>
<path d="" fill="#4B4D58" transform="translate(0,0)"/>
<path d="" fill="#4D5056" transform="translate(0,0)"/>
<path d="" fill="#4E5258" transform="translate(0,0)"/>
<path d="" fill="#4A5055" transform="translate(0,0)"/>
<path d="" fill="#4E4F53" transform="translate(0,0)"/>
<path d="" fill="#4E535A" transform="translate(0,0)"/>
<path d="" fill="#50575D" transform="translate(0,0)"/>
<path d="" fill="#4E5558" transform="translate(0,0)"/>
<path d="" fill="#484F52" transform="translate(0,0)"/>
<path d="" fill="#4E535A" transform="translate(0,0)"/>
<path d="" fill="#505358" transform="translate(0,0)"/>
<path d="" fill="#515657" transform="translate(0,0)"/>
<path d="" fill="#52585A" transform="translate(0,0)"/>
<path d="" fill="#50585E" transform="translate(0,0)"/>
<path d="" fill="#4E545C" transform="translate(0,0)"/>
<path d="" fill="#475256" transform="translate(0,0)"/>
<path d="" fill="#495051" transform="translate(0,0)"/>
<path d="" fill="#4B4F55" transform="translate(0,0)"/>
<path d="" fill="#4A5154" transform="translate(0,0)"/>
<path d="" fill="#4B5155" transform="translate(0,0)"/>
<path d="" fill="#4B4F55" transform="translate(0,0)"/>
<path d="" fill="#474E52" transform="translate(0,0)"/>
<path d="" fill="#4C5359" transform="translate(0,0)"/>
<path d="" fill="#4C5257" transform="translate(0,0)"/>
<path d="" fill="#5A6769" transform="translate(0,0)"/>
<path d="" fill="#595D63" transform="translate(0,0)"/>
<path d="" fill="#595B5F" transform="translate(0,0)"/>
<path d="" fill="#575B5F" transform="translate(0,0)"/>
<path d="" fill="#545A61" transform="translate(0,0)"/>
<path d="" fill="#586768" transform="translate(0,0)"/>
<path d="" fill="#565B5D" transform="translate(0,0)"/>
<path d="" fill="#55585D" transform="translate(0,0)"/>
<path d="" fill="#5A5E62" transform="translate(0,0)"/>
<path d="" fill="#50575D" transform="translate(0,0)"/>
<path d="" fill="#4F595E" transform="translate(0,0)"/>
<path d="" fill="#585C63" transform="translate(0,0)"/>
<path d="" fill="#555A5F" transform="translate(0,0)"/>
<path d="" fill="#619F8B" transform="translate(0,0)"/>
<path d="" fill="#64A38E" transform="translate(0,0)"/>
<path d="" fill="#6E8F83" transform="translate(0,0)"/>
<path d="" fill="#7D7E7B" transform="translate(0,0)"/>
<path d="" fill="#7C7C7C" transform="translate(0,0)"/>
</svg>
